<svg width="10" height="10" viewBox="0 0 10 10" fill="none" xmlns="http://www.w3.org/2000/svg">
<path fill-rule="evenodd" clip-rule="evenodd" d="M9.74473 2.33224C9.54623 2.09804 9.25774 1.96334 8.95425 1.96334H3.58188C3.37489 1.96334 3.20689 2.13478 3.20689 2.34602C3.20689 2.55725 3.37489 2.72869 3.58188 2.72869H8.95425C9.07175 2.72869 9.14474 2.794 9.17774 2.83278C9.21074 2.87207 9.26374 2.95523 9.24674 3.07361L8.77225 6.42022C8.73475 6.68248 8.51076 6.88044 8.25077 6.88044H2.7954C2.51891 6.88044 2.29342 6.6687 2.27042 6.38807L1.78893 0.534696C1.77493 0.361217 1.64743 0.218862 1.47944 0.189269L0.438962 0.00507535C0.232467 -0.0285999 0.0404721 0.108652 0.00547297 0.317337C-0.0295261 0.525511 0.10697 0.723481 0.310965 0.759708L1.06595 0.892878L1.52293 6.45185C1.57893 7.1325 2.12592 7.64579 2.7954 7.64579H8.25077C8.88125 7.64579 9.42424 7.16617 9.51423 6.52992L9.98922 3.18331C10.0327 2.87615 9.94322 2.56644 9.74473 2.33224ZM1.95398 9.22759C1.95398 8.80155 2.29397 8.45459 2.71146 8.45459C3.12895 8.45459 3.46844 8.80155 3.46844 9.22759C3.46844 9.65363 3.12895 10.0001 2.71146 10.0001C2.29397 10.0001 1.95398 9.65363 1.95398 9.22759ZM7.58032 9.22759C7.58032 8.80155 7.91981 8.45459 8.3373 8.45459C8.75479 8.45459 9.09478 8.80155 9.09478 9.22759C9.09478 9.65363 8.75479 10.0001 8.3373 10.0001C7.91981 10.0001 7.58032 9.65363 7.58032 9.22759ZM7.82443 4.23228C7.82443 4.44352 7.65644 4.61496 7.44944 4.61496H6.06298C5.85548 4.61496 5.68799 4.44352 5.68799 4.23228C5.68799 4.02105 5.85548 3.84961 6.06298 3.84961H7.44944C7.65644 3.84961 7.82443 4.02105 7.82443 4.23228Z" fill="white"/>
</svg>
