<svg width="1222" height="102" viewBox="0 0 1222 102" fill="none" xmlns="http://www.w3.org/2000/svg">
<path d="M568 55.2L571 48.72L574 55.2H568ZM577.4 60.4C577.786 60.4 578.12 60.26 578.4 59.98C578.666 59.7133 578.8 59.3867 578.8 59V56.6C578.8 56.2133 578.666 55.88 578.4 55.6C578.12 55.3333 577.786 55.2 577.4 55.2H577.1L572.28 44.8C572.04 44.3067 571.613 44.06 571 44.06C570.386 44.06 569.966 44.3067 569.74 44.8L564.9 55.2H564.6C564.213 55.2 563.88 55.3333 563.6 55.6C563.333 55.88 563.2 56.2133 563.2 56.6V59C563.2 59.3867 563.333 59.7133 563.6 59.98C563.88 60.26 564.213 60.4 564.6 60.4C564.986 60.4 565.313 60.26 565.58 59.98C565.86 59.7133 566 59.3867 566 59V58H576V59C576 59.3867 576.133 59.7133 576.4 59.98C576.68 60.26 577.013 60.4 577.4 60.4ZM585.596 48.8C586.476 48.8 587.229 49.1133 587.856 49.74C588.483 50.3667 588.796 51.12 588.796 52C588.796 52.88 588.483 53.6333 587.856 54.26C587.229 54.8867 586.476 55.2 585.596 55.2C584.716 55.2 583.963 54.8867 583.336 54.26C582.709 53.6333 582.396 52.88 582.396 52C582.396 51.12 582.709 50.3667 583.336 49.74C583.963 49.1133 584.716 48.8 585.596 48.8ZM585.596 58C587.249 58 588.663 57.4133 589.836 56.24C591.009 55.0667 591.596 53.6533 591.596 52C591.596 50.3467 591.009 48.9333 589.836 47.76C588.663 46.5867 587.249 46 585.596 46C583.943 46 582.529 46.5867 581.356 47.76C580.183 48.9333 579.596 50.3467 579.596 52C579.596 53.6533 580.183 55.0667 581.356 56.24C582.529 57.4133 583.943 58 585.596 58ZM600.059 52.74C600.392 52.74 600.679 52.86 600.919 53.1C601.159 53.34 601.279 53.6267 601.279 53.96C601.279 54.3067 601.159 54.6 600.919 54.84C600.679 55.08 600.392 55.2 600.059 55.2H596.199V52.74H600.059ZM601.699 48.8C602.086 48.8 602.419 48.6667 602.699 48.4C602.966 48.12 603.099 47.7867 603.099 47.4C603.099 47.0133 602.966 46.68 602.699 46.4C602.419 46.1333 602.086 46 601.699 46H594.799C594.412 46 594.079 46.1333 593.799 46.4C593.532 46.68 593.399 47.0133 593.399 47.4V56.6C593.399 56.9867 593.532 57.3133 593.799 57.58C594.079 57.86 594.412 58 594.799 58H600.059C601.166 58 602.112 57.6067 602.899 56.82C603.686 56.0333 604.079 55.08 604.079 53.96C604.079 52.8533 603.686 51.9067 602.899 51.12C602.112 50.3333 601.166 49.94 600.059 49.94H596.199V48.8H601.699ZM610.999 50.52L612.179 52.9H609.799L610.999 50.52ZM605.759 57.84C606.106 58.0133 606.466 58.04 606.839 57.92C607.199 57.8 607.466 57.5667 607.639 57.22L608.399 55.7H613.579L614.339 57.22C614.593 57.74 615.013 58 615.599 58C615.813 58 616.019 57.9467 616.219 57.84C616.566 57.6667 616.799 57.4 616.919 57.04C617.039 56.6667 617.013 56.3067 616.839 55.96L612.239 46.76C611.999 46.2933 611.586 46.06 610.999 46.06C610.399 46.06 609.979 46.2933 609.739 46.76L605.139 55.96C604.966 56.3067 604.939 56.6667 605.059 57.04C605.179 57.4 605.413 57.6667 605.759 57.84ZM621.297 48.8H625.157C625.41 48.8 625.623 48.8867 625.797 49.06C625.97 49.2333 626.057 49.4467 626.057 49.7C626.057 49.9533 625.97 50.1667 625.797 50.34C625.61 50.5133 625.397 50.6 625.157 50.6H621.297V48.8ZM621.297 55.2V53.4H625.817C626.057 53.4 626.27 53.4867 626.457 53.66C626.63 53.8333 626.717 54.0467 626.717 54.3C626.717 54.5533 626.63 54.7667 626.457 54.94C626.27 55.1133 626.057 55.2 625.817 55.2H621.297ZM625.817 58C626.83 58 627.697 57.64 628.417 56.92C629.15 56.1867 629.517 55.3133 629.517 54.3C629.517 53.2333 629.117 52.3333 628.317 51.6C628.677 51 628.857 50.3667 628.857 49.7C628.857 48.6733 628.497 47.8 627.777 47.08C627.043 46.36 626.17 46 625.157 46H619.897C619.51 46 619.177 46.1333 618.897 46.4C618.63 46.68 618.497 47.0133 618.497 47.4V56.6C618.497 56.9867 618.63 57.3133 618.897 57.58C619.177 57.86 619.51 58 619.897 58H625.817ZM640.589 58C640.976 58 641.309 57.8667 641.589 57.6C641.856 57.32 641.989 56.9867 641.989 56.6V47.4C641.989 46.7467 641.689 46.3067 641.089 46.08C640.476 45.8533 639.956 45.9867 639.529 46.48L634.109 52.82V47.4C634.109 47.0133 633.976 46.68 633.709 46.4C633.429 46.1333 633.096 46 632.709 46C632.322 46 631.996 46.1333 631.729 46.4C631.449 46.68 631.309 47.0133 631.309 47.4V56.6C631.309 57.2533 631.616 57.6933 632.229 57.92C632.389 57.9733 632.549 58 632.709 58C633.136 58 633.489 57.8333 633.769 57.5L639.189 51.18V56.6C639.189 56.9867 639.329 57.32 639.609 57.6C639.876 57.8667 640.202 58 640.589 58ZM647.335 48.8V56.6C647.335 56.9867 647.475 57.3133 647.755 57.58C648.022 57.86 648.348 58 648.735 58C649.122 58 649.455 57.86 649.735 57.58C650.002 57.3133 650.135 56.9867 650.135 56.6V48.8H652.675C653.062 48.8 653.395 48.6667 653.675 48.4C653.942 48.12 654.075 47.7867 654.075 47.4C654.075 47.0133 653.942 46.68 653.675 46.4C653.395 46.1333 653.062 46 652.675 46H644.795C644.408 46 644.075 46.1333 643.795 46.4C643.528 46.68 643.395 47.0133 643.395 47.4C643.395 47.7867 643.528 48.12 643.795 48.4C644.075 48.6667 644.408 48.8 644.795 48.8H647.335ZM658.269 52.08H661.149C661.576 52.08 661.943 52.2333 662.249 52.54C662.543 52.8467 662.689 53.2133 662.689 53.64C662.689 54.0667 662.543 54.4333 662.249 54.74C661.943 55.0467 661.576 55.2 661.149 55.2H658.269V52.08ZM655.469 56.6C655.469 56.9867 655.603 57.32 655.869 57.6C656.149 57.8667 656.483 58 656.869 58H661.149C662.349 58 663.376 57.5733 664.229 56.72C665.069 55.8667 665.489 54.84 665.489 53.64C665.489 52.44 665.069 51.4133 664.229 50.56C663.376 49.7067 662.349 49.28 661.149 49.28H658.269V47.4C658.269 47.0133 658.136 46.6867 657.869 46.42C657.589 46.14 657.256 46 656.869 46C656.483 46 656.149 46.14 655.869 46.42C655.603 46.6867 655.469 47.0133 655.469 47.4V56.6ZM677.218 48.8V56.6C677.218 56.9867 677.358 57.3133 677.638 57.58C677.905 57.86 678.231 58 678.618 58C679.005 58 679.338 57.86 679.618 57.58C679.885 57.3133 680.018 56.9867 680.018 56.6V48.8H682.558C682.945 48.8 683.278 48.6667 683.558 48.4C683.825 48.12 683.958 47.7867 683.958 47.4C683.958 47.0133 683.825 46.68 683.558 46.4C683.278 46.1333 682.945 46 682.558 46H674.678C674.291 46 673.958 46.1333 673.678 46.4C673.411 46.68 673.278 47.0133 673.278 47.4C673.278 47.7867 673.411 48.12 673.678 48.4C673.958 48.6667 674.291 48.8 674.678 48.8H677.218ZM689.951 48.8C690.831 48.8 691.585 49.1133 692.211 49.74C692.838 50.3667 693.151 51.12 693.151 52C693.151 52.88 692.838 53.6333 692.211 54.26C691.585 54.8867 690.831 55.2 689.951 55.2C689.071 55.2 688.318 54.8867 687.691 54.26C687.065 53.6333 686.751 52.88 686.751 52C686.751 51.12 687.065 50.3667 687.691 49.74C688.318 49.1133 689.071 48.8 689.951 48.8ZM689.951 58C691.605 58 693.018 57.4133 694.191 56.24C695.365 55.0667 695.951 53.6533 695.951 52C695.951 50.3467 695.365 48.9333 694.191 47.76C693.018 46.5867 691.605 46 689.951 46C688.298 46 686.885 46.5867 685.711 47.76C684.538 48.9333 683.951 50.3467 683.951 52C683.951 53.6533 684.538 55.0667 685.711 56.24C686.885 57.4133 688.298 58 689.951 58ZM700.554 48.8H704.414C704.668 48.8 704.881 48.8867 705.054 49.06C705.228 49.2333 705.314 49.4467 705.314 49.7C705.314 49.9533 705.228 50.1667 705.054 50.34C704.868 50.5133 704.654 50.6 704.414 50.6H700.554V48.8ZM700.554 55.2V53.4H705.074C705.314 53.4 705.528 53.4867 705.714 53.66C705.888 53.8333 705.974 54.0467 705.974 54.3C705.974 54.5533 705.888 54.7667 705.714 54.94C705.528 55.1133 705.314 55.2 705.074 55.2H700.554ZM705.074 58C706.088 58 706.954 57.64 707.674 56.92C708.408 56.1867 708.774 55.3133 708.774 54.3C708.774 53.2333 708.374 52.3333 707.574 51.6C707.934 51 708.114 50.3667 708.114 49.7C708.114 48.6733 707.754 47.8 707.034 47.08C706.301 46.36 705.428 46 704.414 46H699.154C698.768 46 698.434 46.1333 698.154 46.4C697.888 46.68 697.754 47.0133 697.754 47.4V56.6C697.754 56.9867 697.888 57.3133 698.154 57.58C698.434 57.86 698.768 58 699.154 58H705.074ZM715.687 50.52L716.867 52.9H714.487L715.687 50.52ZM710.447 57.84C710.794 58.0133 711.154 58.04 711.527 57.92C711.887 57.8 712.154 57.5667 712.327 57.22L713.087 55.7H718.267L719.027 57.22C719.28 57.74 719.7 58 720.287 58C720.5 58 720.707 57.9467 720.907 57.84C721.254 57.6667 721.487 57.4 721.607 57.04C721.727 56.6667 721.7 56.3067 721.527 55.96L716.927 46.76C716.687 46.2933 716.274 46.06 715.687 46.06C715.087 46.06 714.667 46.2933 714.427 46.76L709.827 55.96C709.654 56.3067 709.627 56.6667 709.747 57.04C709.867 57.4 710.1 57.6667 710.447 57.84ZM725.984 48.8H729.184C729.611 48.8 729.977 48.9533 730.284 49.26C730.591 49.5667 730.744 49.9333 730.744 50.36C730.744 50.7867 730.591 51.1533 730.284 51.46C729.977 51.7667 729.611 51.92 729.184 51.92H725.984V48.8ZM724.584 58C724.971 58 725.304 57.86 725.584 57.58C725.851 57.3133 725.984 56.9867 725.984 56.6V54.72H729.184C730.384 54.72 731.411 54.2933 732.264 53.44C733.117 52.5867 733.544 51.56 733.544 50.36C733.544 49.16 733.117 48.1333 732.264 47.28C731.411 46.4267 730.384 46 729.184 46H724.584C724.197 46 723.864 46.1333 723.584 46.4C723.317 46.68 723.184 47.0133 723.184 47.4V56.6C723.184 56.9867 723.317 57.3133 723.584 57.58C723.864 57.86 724.197 58 724.584 58Z" fill="url(#paint0_linear_87_4276)"/>
<path d="M536.252 44.7313H519.219V27.6983C519.219 26.7493 518.47 26 517.52 26H508.43C507.481 26 506.731 26.7493 506.731 27.6983V44.7313H489.698C488.749 44.7313 488 45.4805 488 46.4296V55.5704C488 56.5195 488.749 57.2687 489.698 57.2687H506.731V74.3017C506.731 75.2507 507.481 76 508.43 76H517.57C518.519 76 519.269 75.2507 519.269 74.3017V57.2188H536.302C537.251 57.2188 538 56.4695 538 55.5205V46.4296C537.95 45.4805 537.201 44.7313 536.252 44.7313Z" fill="url(#paint1_linear_87_4276)"/>
<rect x="1" y="1" width="1220" height="100" rx="10" stroke="url(#paint2_linear_87_4276)" stroke-linecap="round" stroke-linejoin="round" stroke-dasharray="10 10"/>
<defs>
<linearGradient id="paint0_linear_87_4276" x1="563" y1="59" x2="725.645" y2="11.1823" gradientUnits="userSpaceOnUse">
<stop stop-color="#53CDEF"/>
<stop offset="1" stop-color="#467CD7"/>
</linearGradient>
<linearGradient id="paint1_linear_87_4276" x1="488" y1="76" x2="539.329" y2="74.5962" gradientUnits="userSpaceOnUse">
<stop stop-color="#53CDEF"/>
<stop offset="0.911458" stop-color="#467CD7"/>
</linearGradient>
<linearGradient id="paint2_linear_87_4276" x1="1" y1="101" x2="1128.81" y2="-275.3" gradientUnits="userSpaceOnUse">
<stop stop-color="#53CDEF"/>
<stop offset="1" stop-color="#467CD7"/>
</linearGradient>
</defs>
</svg>
