<svg width="10" height="16" viewBox="0 0 10 16" fill="none" xmlns="http://www.w3.org/2000/svg">
<path fill-rule="evenodd" clip-rule="evenodd" d="M9.72641 14.5928C10.092 14.9143 10.0895 15.4356 9.72889 15.7571C9.367 16.0797 8.77831 16.0808 8.41394 15.7604L3.0079 10.9946C2.82572 10.8344 2.73401 10.6226 2.73401 10.4119C2.73401 10.2024 2.82572 9.99167 3.00542 9.83146C3.36731 9.50884 3.956 9.50774 4.32037 9.82816L9.72641 14.5928ZM9.72889 0.241689C10.0895 0.563209 10.092 1.08444 9.72641 1.40596L1.58637 8.58255C1.222 8.90407 0.633307 8.90297 0.271417 8.58035C0.0917116 8.42014 -1.31252e-06 8.20946 -1.30336e-06 7.99986C-1.2941e-06 7.78808 0.0917107 7.57739 0.273896 7.41718L8.41394 0.240592C8.77831 -0.080928 9.367 -0.0798306 9.72889 0.241689Z" fill="#434343"/>
</svg>
