<svg width="36" height="35" viewBox="0 0 36 35" fill="none" xmlns="http://www.w3.org/2000/svg">
<g clip-path="url(#clip0_13_338)">
<path d="M35.2085 17.5C35.2085 7.83501 27.3735 0 17.7085 0C8.04351 0 0.208496 7.83501 0.208496 17.5C0.208496 26.2346 6.60796 33.4746 14.9741 34.7874V22.5586H10.5308V17.5H14.9741V13.6445C14.9741 9.25859 17.5868 6.83594 21.5841 6.83594C23.4982 6.83594 25.5015 7.17773 25.5015 7.17773V11.4844H23.2948C21.121 11.4844 20.4429 12.8334 20.4429 14.2188V17.5H25.2964L24.5205 22.5586H20.4429V34.7874C28.809 33.4746 35.2085 26.2346 35.2085 17.5Z" fill="#434343"/>
<path d="M24.5205 22.5586L25.2964 17.5H20.4429V14.2188C20.4429 12.8348 21.121 11.4844 23.2948 11.4844H25.5015V7.17773C25.5015 7.17773 23.4989 6.83594 21.5841 6.83594C17.5868 6.83594 14.9741 9.25859 14.9741 13.6445V17.5H10.5308V22.5586H14.9741V34.7874C16.786 35.0709 18.631 35.0709 20.4429 34.7874V22.5586H24.5205Z" fill="white"/>
</g>
<defs>
<clipPath id="clip0_13_338">
<rect width="35" height="35" fill="white" transform="translate(0.208496)"/>
</clipPath>
</defs>
</svg>
