<svg width="36" height="35" viewBox="0 0 36 35" fill="none" xmlns="http://www.w3.org/2000/svg">
<g clip-path="url(#clip0_13_339)">
<path d="M17.7085 35C27.3735 35 35.2085 27.165 35.2085 17.5C35.2085 7.83502 27.3735 0 17.7085 0C8.04351 0 0.208496 7.83502 0.208496 17.5C0.208496 27.165 8.04351 35 17.7085 35Z" fill="url(#paint0_linear_13_339)"/>
<path fill-rule="evenodd" clip-rule="evenodd" d="M8.12998 17.3152C13.2316 15.0925 16.6335 13.6272 18.3356 12.9192C23.1955 10.8978 24.2054 10.5466 24.8636 10.535C25.0084 10.5325 25.332 10.5684 25.5417 10.7385C25.7188 10.8822 25.7675 11.0762 25.7908 11.2124C25.8141 11.3486 25.8431 11.6589 25.82 11.9013C25.5567 14.6685 24.4171 21.3837 23.8374 24.4829C23.5921 25.7943 23.109 26.2341 22.6414 26.2771C21.6251 26.3706 20.8535 25.6055 19.8692 24.9603C18.3289 23.9506 17.4588 23.3221 15.9637 22.3369C14.2359 21.1983 15.356 20.5725 16.3407 19.5498C16.5984 19.2822 21.076 15.2094 21.1627 14.8399C21.1735 14.7937 21.1836 14.6215 21.0813 14.5305C20.9789 14.4396 20.8279 14.4707 20.7189 14.4954C20.5644 14.5305 18.1039 16.1568 13.3373 19.3744C12.6389 19.854 12.0063 20.0876 11.4395 20.0754C10.8147 20.0619 9.61273 19.7221 8.71921 19.4316C7.62327 19.0754 6.75224 18.887 6.82809 18.282C6.8676 17.9669 7.30156 17.6446 8.12998 17.3152Z" fill="white"/>
</g>
<defs>
<linearGradient id="paint0_linear_13_339" x1="17.7085" y1="0" x2="17.7085" y2="34.7404" gradientUnits="userSpaceOnUse">
<stop stop-color="#434343"/>
<stop offset="1" stop-color="#434343"/>
</linearGradient>
<clipPath id="clip0_13_339">
<rect width="35" height="35" fill="white" transform="translate(0.208496)"/>
</clipPath>
</defs>
</svg>
