<svg width="24" height="21" viewBox="0 0 24 21" fill="none" xmlns="http://www.w3.org/2000/svg">
<path d="M20.6425 19.0827C20.6425 19.9505 19.939 20.6541 19.0711 20.6541C18.2032 20.6541 17.4997 19.9505 17.4997 19.0827C17.4997 18.2148 18.2032 17.5112 19.0711 17.5112C19.939 17.5112 20.6425 18.2148 20.6425 19.0827Z" fill="#171717"/>
<path d="M10.4283 19.0827C10.4283 19.9505 9.7247 20.6541 8.85683 20.6541C7.98895 20.6541 7.2854 19.9505 7.2854 19.0827C7.2854 18.2148 7.98895 17.5112 8.85683 17.5112C9.7247 17.5112 10.4283 18.2148 10.4283 19.0827Z" fill="#171717"/>
<path d="M10.4283 19.0827C10.4283 19.9505 9.7247 20.6541 8.85683 20.6541C7.98895 20.6541 7.2854 19.9505 7.2854 19.0827C7.2854 18.2148 7.98895 17.5112 8.85683 17.5112C9.7247 17.5112 10.4283 18.2148 10.4283 19.0827Z" fill="#171717"/>
<path d="M20.6425 19.0827C20.6425 19.9505 19.939 20.6541 19.0711 20.6541C18.2032 20.6541 17.4997 19.9505 17.4997 19.0827C17.4997 18.2148 18.2032 17.5112 19.0711 17.5112C19.939 17.5112 20.6425 18.2148 20.6425 19.0827Z" stroke="#171717"/>
<path d="M10.4283 19.0827C10.4283 19.9505 9.7247 20.6541 8.85683 20.6541C7.98895 20.6541 7.2854 19.9505 7.2854 19.0827C7.2854 18.2148 7.98895 17.5112 8.85683 17.5112C9.7247 17.5112 10.4283 18.2148 10.4283 19.0827Z" stroke="#171717"/>
<path d="M10.4283 19.0827C10.4283 19.9505 9.7247 20.6541 8.85683 20.6541C7.98895 20.6541 7.2854 19.9505 7.2854 19.0827C7.2854 18.2148 7.98895 17.5112 8.85683 17.5112C9.7247 17.5112 10.4283 18.2148 10.4283 19.0827Z" stroke="#171717"/>
<path d="M20.6214 15.1507H8.04285C7.2348 15.1507 6.83077 15.1507 6.55116 14.9141C6.27156 14.6776 6.20456 14.2792 6.07055 13.4823L4.25329 2.67611C4.11928 1.87925 4.05228 1.48081 3.77267 1.2443C3.49307 1.0078 3.08904 1.0078 2.28098 1.0078H0.999756M4.39744 3.37768L20.5197 3.36802C21.6652 3.36734 22.238 3.36699 22.5384 3.73907C22.8388 4.11114 22.7178 4.67095 22.4758 5.79058L21.5569 10.0413C21.3935 10.7973 21.3118 11.1752 21.037 11.397C20.7622 11.6188 20.3755 11.6188 19.6021 11.6188H5.75716" stroke="#171717" stroke-width="1.2" stroke-linecap="round" stroke-linejoin="round"/>
</svg>
