<svg width="22" height="22" viewBox="0 0 22 22" fill="none" xmlns="http://www.w3.org/2000/svg">
<path fill-rule="evenodd" clip-rule="evenodd" d="M8.00536 1.47674H2.14489C1.60545 1.47674 1.16815 1.91405 1.16815 2.45349V10.7558C1.16815 11.2953 1.60545 11.7326 2.14489 11.7326H8.00536C8.5448 11.7326 8.9821 11.2953 8.9821 10.7558V2.45349C8.9821 1.91405 8.5448 1.47674 8.00536 1.47674ZM19.2379 1.47674H13.3775C12.838 1.47674 12.4007 1.91405 12.4007 2.45349V6.36047C12.4007 6.89991 12.838 7.33721 13.3775 7.33721H19.2379C19.7774 7.33721 20.2147 6.89991 20.2147 6.36047V2.45349C20.2147 1.91405 19.7774 1.47674 19.2379 1.47674ZM19.2379 10.7558H13.3775C12.838 10.7558 12.4007 11.1931 12.4007 11.7326V19.5465C12.4007 20.086 12.838 20.5233 13.3775 20.5233H19.2379C19.7774 20.5233 20.2147 20.086 20.2147 19.5465V11.7326C20.2147 11.1931 19.7774 10.7558 19.2379 10.7558ZM8.00536 15.1512H2.14489C1.60545 15.1512 1.16815 15.5885 1.16815 16.1279V19.5465C1.16815 20.086 1.60545 20.5233 2.14489 20.5233H8.00536C8.5448 20.5233 8.9821 20.086 8.9821 19.5465V16.1279C8.9821 15.5885 8.5448 15.1512 8.00536 15.1512ZM2.14489 0.5C1.06601 0.5 0.191406 1.37461 0.191406 2.45349V10.7558C0.191406 11.8347 1.06601 12.7093 2.14489 12.7093H8.00536C9.08424 12.7093 9.95885 11.8347 9.95885 10.7558V2.45349C9.95885 1.37461 9.08424 0.5 8.00536 0.5H2.14489ZM13.3775 0.5C12.2986 0.5 11.424 1.37461 11.424 2.45349V6.36047C11.424 7.43935 12.2986 8.31395 13.3775 8.31395H19.2379C20.3168 8.31395 21.1914 7.43935 21.1914 6.36047V2.45349C21.1914 1.37461 20.3168 0.5 19.2379 0.5H13.3775ZM11.424 11.7326C11.424 10.6537 12.2986 9.77907 13.3775 9.77907H19.2379C20.3168 9.77907 21.1914 10.6537 21.1914 11.7326V19.5465C21.1914 20.6254 20.3168 21.5 19.2379 21.5H13.3775C12.2986 21.5 11.424 20.6254 11.424 19.5465V11.7326ZM2.14489 14.1744C1.06601 14.1744 0.191406 15.049 0.191406 16.1279V19.5465C0.191406 20.6254 1.06601 21.5 2.14489 21.5H8.00536C9.08424 21.5 9.95885 20.6254 9.95885 19.5465V16.1279C9.95885 15.049 9.08424 14.1744 8.00536 14.1744H2.14489Z" fill="white"/>
</svg>
