<svg width="17" height="21" viewBox="0 0 17 21" fill="none" xmlns="http://www.w3.org/2000/svg">
<path d="M0 12.25C0 11.6701 0.470101 11.2 1.05 11.2C1.6299 11.2 2.1 11.6701 2.1 12.25V21H0V12.25Z" fill="#171717"/>
<path d="M4.9 1.05C4.9 0.470101 5.3701 0 5.95 0C6.5299 0 7 0.470101 7 1.05V21H4.9V1.05Z" fill="#171717"/>
<path d="M9.8 9.45C9.8 8.8701 10.2701 8.4 10.85 8.4C11.4299 8.4 11.9 8.8701 11.9 9.45V21H9.8V9.45Z" fill="#171717"/>
<path d="M14.7 5.25C14.7 4.6701 15.1701 4.2 15.75 4.2C16.3299 4.2 16.8 4.6701 16.8 5.25V21H14.7V5.25Z" fill="#171717"/>
</svg>
