<svg width="21" height="20" viewBox="0 0 21 20" fill="none" xmlns="http://www.w3.org/2000/svg">
<path d="M11.0426 2.31975C11.4443 1.81333 11.948 1.41741 12.5115 1.15971C13.485 0.724148 14.5537 0.600517 15.589 0.801571C16.6251 1.00275 17.5898 1.52179 18.3633 2.30248C19.2084 3.16303 19.8139 4.26396 20.105 5.48196C20.3963 6.70014 20.3601 7.98144 20.0012 9.17816C19.8297 9.74662 19.5787 10.2827 19.2576 10.7684L19.2576 10.7684L19.2543 10.7734C18.9258 11.2797 18.5312 11.7312 18.0837 12.1146L18.0823 12.1159L10.7058 18.4696L10.7057 18.4695L10.6967 18.4776C10.6356 18.5321 10.5661 18.5568 10.5006 18.5578C10.4277 18.5555 10.3518 18.5285 10.2848 18.4728L2.91181 12.122L2.91183 12.122L2.90736 12.1182C2.01596 11.3633 1.34782 10.34 0.993103 9.17276C0.637388 7.97553 0.604422 6.69474 0.898342 5.4779C1.19229 4.26093 1.80008 3.16184 2.64692 2.30365C3.41866 1.52707 4.37987 1.01046 5.41199 0.809338C6.44255 0.608519 7.50633 0.729421 8.47668 1.15966C9.03985 1.41983 9.54366 1.81609 9.9471 2.32147L10.4959 3.00896L11.0426 2.31975Z" stroke="#171717" stroke-width="1.4"/>
</svg>
