<svg width="5" height="19" viewBox="0 0 5 19" fill="none" xmlns="http://www.w3.org/2000/svg">
<path d="M2.56708 14.3764C2.95441 14.3572 3.33858 14.4546 3.66994 14.6561C4.00129 14.8576 4.26458 15.1538 4.42575 15.5065C4.58692 15.8593 4.63858 16.2522 4.57402 16.6346C4.50946 17.017 4.33167 17.3712 4.06363 17.6515C3.79559 17.9318 3.44964 18.1251 3.07051 18.2067C2.69138 18.2882 2.2965 18.2541 1.93695 18.1088C1.5774 17.9635 1.26971 17.7137 1.05366 17.3917C0.837614 17.0696 0.723151 16.6902 0.725077 16.3024C0.700549 16.0506 0.730672 15.7964 0.813379 15.5573C0.896087 15.3182 1.02943 15.0997 1.20431 14.9169C1.37919 14.734 1.59147 14.5911 1.82667 14.4978C2.06186 14.4045 2.31441 14.3631 2.56708 14.3764Z" fill="#171717"/>
<path d="M2.56708 7.38041C2.95441 7.3612 3.33858 7.45864 3.66994 7.66012C4.00129 7.8616 4.26458 8.15785 4.42575 8.51057C4.58692 8.86329 4.63858 9.25625 4.57402 9.63864C4.50946 10.021 4.33167 10.3753 4.06363 10.6555C3.79559 10.9358 3.44964 11.1292 3.07051 11.2107C2.69138 11.2922 2.2965 11.2582 1.93695 11.1129C1.5774 10.9676 1.26971 10.7177 1.05366 10.3957C0.837614 10.0737 0.723151 9.6942 0.725077 9.3064C0.700549 9.05458 0.730672 8.80043 0.813379 8.56131C0.896087 8.3222 1.02943 8.10375 1.20431 7.9209C1.37919 7.73805 1.59147 7.5951 1.82667 7.50182C2.06186 7.40854 2.31441 7.36712 2.56708 7.38041Z" fill="#171717"/>
<path d="M2.56708 0.660312C2.95441 0.641107 3.33858 0.738545 3.66994 0.940024C4.00129 1.1415 4.26458 1.43776 4.42575 1.79048C4.58692 2.1432 4.63858 2.53616 4.57402 2.91855C4.50946 3.30094 4.33167 3.65516 4.06363 3.93542C3.79559 4.21568 3.44964 4.40909 3.07051 4.49062C2.69138 4.57215 2.2965 4.53807 1.93695 4.39277C1.5774 4.24748 1.26971 3.99765 1.05366 3.67561C0.837614 3.35356 0.723151 2.97411 0.725077 2.58631C0.700549 2.33449 0.730672 2.08033 0.813379 1.84122C0.896087 1.6021 1.02943 1.38366 1.20431 1.20081C1.37919 1.01796 1.59147 0.875006 1.82667 0.781725C2.06186 0.688444 2.31441 0.647031 2.56708 0.660312Z" fill="#171717"/>
</svg>
