<svg width="22" height="21" viewBox="0 0 22 21" fill="none" xmlns="http://www.w3.org/2000/svg">
<path d="M11.0381 11.7482C12.1592 11.747 13.2549 11.4135 14.1865 10.7897C15.1181 10.166 15.844 9.28002 16.2722 8.24386C16.7004 7.2077 16.8118 6.06784 16.5924 4.96837C16.3729 3.86889 15.8324 2.85915 15.0392 2.06679C14.246 1.27443 13.2357 0.735008 12.136 0.516715C11.0363 0.298423 9.89657 0.411057 8.86086 0.840382C7.82515 1.26971 6.93997 1.99645 6.31721 2.92874C5.69445 3.86104 5.36206 4.95704 5.36206 6.0782C5.36365 7.58253 5.96235 9.0247 7.02664 10.0879C8.09092 11.151 9.53373 11.7482 11.0381 11.7482ZM11.0381 1.2842C11.9874 1.2842 12.9154 1.56572 13.7048 2.09315C14.4941 2.62058 15.1094 3.37024 15.4727 4.24732C15.836 5.12441 15.931 6.08953 15.7458 7.02064C15.5606 7.95174 15.1035 8.80702 14.4322 9.47831C13.7609 10.1496 12.9056 10.6068 11.9745 10.792C11.0434 10.9772 10.0783 10.8821 9.20118 10.5188C8.32409 10.1555 7.57443 9.54029 7.047 8.75094C6.51957 7.96158 6.23806 7.03355 6.23806 6.0842C6.23806 4.81116 6.74376 3.59026 7.64394 2.69009C8.54411 1.78992 9.76502 1.2842 11.0381 1.2842Z" fill="#171717" stroke="#171717" stroke-width="0.5"/>
<path d="M15.718 13.7481H6.346C5.64396 13.7481 4.94879 13.8863 4.30018 14.155C3.65158 14.4237 3.06223 14.8174 2.56581 15.3139C2.06939 15.8103 1.67561 16.3996 1.40695 17.0482C1.13829 17.6968 1 18.392 1 19.0941V19.8861C1 20.4441 1.87001 20.4081 1.87001 19.8501V19.0941C1.87001 17.9069 2.34157 16.7685 3.18099 15.929C4.0204 15.0896 5.15889 14.6181 6.346 14.6181H15.718C16.3063 14.6173 16.889 14.7325 17.4327 14.957C17.9765 15.1816 18.4706 15.5112 18.8869 15.9269C19.3032 16.3426 19.6334 16.8363 19.8587 17.3798C20.084 17.9232 20.2 18.5057 20.2 19.0941V19.8501C20.2 20.4081 21.064 20.4501 21.07 19.8861V19.0941C21.07 18.3915 20.9315 17.6958 20.6625 17.0468C20.3935 16.3978 19.9991 15.8082 19.5021 15.3117C19.005 14.8152 18.415 14.4216 17.7657 14.1533C17.1164 13.885 16.4206 13.7473 15.718 13.7481Z" fill="#171717" stroke="#171717" stroke-width="0.5"/>
</svg>
