<svg width="14" height="8" viewBox="0 0 13 6" fill="none" xmlns="http://www.w3.org/2000/svg">
<path fill-rule="evenodd" clip-rule="evenodd" d="M0.76854 0.236475C1.0173 0.0407437 1.42059 0.0393984 1.66935 0.23782L7.22194 4.65556C7.4707 4.85331 7.46985 5.17281 7.22024 5.36921C7.09629 5.46674 6.93327 5.51651 6.77111 5.51651C6.60725 5.51651 6.44424 5.46674 6.32028 5.36787L0.767691 0.950121C0.518928 0.752372 0.519777 0.432879 0.76854 0.236475ZM11.8722 0.237881C12.121 0.0394595 12.5243 0.0408047 12.773 0.236536C13.0227 0.43294 13.0235 0.752433 12.7756 0.950182L9.0883 3.88413C8.96434 3.98301 8.80048 4.03278 8.63747 4.03278C8.4753 4.03278 8.31229 3.98301 8.18834 3.88548C7.93872 3.68908 7.93788 3.36958 8.18579 3.17183L11.8722 0.237881Z" fill="#086CDA"/>
</svg>
