<svg width="24" height="22" viewBox="0 0 24 22" fill="none" xmlns="http://www.w3.org/2000/svg">
<path fill-rule="evenodd" clip-rule="evenodd" d="M9.71016 18.8076H1.06863C0.500847 18.8076 0.0400391 18.3427 0.0400391 17.7698C0.0400391 17.197 0.500847 16.7321 1.06863 16.7321H9.71016C10.2779 16.7321 10.7387 17.197 10.7387 17.7698C10.7387 18.3427 10.2779 18.8076 9.71016 18.8076Z" fill="#434343"/>
<path fill-rule="evenodd" clip-rule="evenodd" d="M22.2049 5.39632H13.5647C12.9969 5.39632 12.5361 4.93141 12.5361 4.35856C12.5361 3.78572 12.9969 3.3208 13.5647 3.3208H22.2049C22.7727 3.3208 23.2335 3.78572 23.2335 4.35856C23.2335 4.93141 22.7727 5.39632 22.2049 5.39632Z" fill="#434343"/>
<mask id="mask0_210_1146" style="mask-type:alpha" maskUnits="userSpaceOnUse" x="0" y="0" width="9" height="9">
<path fill-rule="evenodd" clip-rule="evenodd" d="M0 0H8.53839V8.56721H0V0Z" fill="white"/>
</mask>
<g mask="url(#mask0_210_1146)">
<path fill-rule="evenodd" clip-rule="evenodd" d="M4.2692 2.07499C3.04998 2.07499 2.05705 3.0657 2.05705 4.28473C2.05705 5.50237 3.04998 6.4917 4.2692 6.4917C5.4898 6.4917 6.48136 5.50237 6.48136 4.28473C6.48136 3.0657 5.4898 2.07499 4.2692 2.07499ZM4.26933 8.56724C1.91592 8.56724 0 6.64669 0 4.28475C0 1.9228 1.91592 -0.000518799 4.26933 -0.000518799C6.62412 -0.000518799 8.53867 1.9228 8.53867 4.28475C8.53867 6.64669 6.62412 8.56724 4.26933 8.56724Z" fill="#434343"/>
</g>
<path fill-rule="evenodd" clip-rule="evenodd" d="M19.7321 15.5078C18.5115 15.5078 17.5186 16.4985 17.5186 17.7161C17.5186 18.9351 18.5115 19.9245 19.7321 19.9245C20.9513 19.9245 21.9429 18.9351 21.9429 17.7161C21.9429 16.4985 20.9513 15.5078 19.7321 15.5078ZM19.7321 22C17.3773 22 15.4614 20.078 15.4614 17.7161C15.4614 15.3542 17.3773 13.4322 19.7321 13.4322C22.0855 13.4322 24.0001 15.3542 24.0001 17.7161C24.0001 20.078 22.0855 22 19.7321 22Z" fill="#434343"/>
</svg>
