<svg width="18" height="18" viewBox="0 0 18 18" fill="none" xmlns="http://www.w3.org/2000/svg">
<path fill-rule="evenodd" clip-rule="evenodd" d="M6.05688 14.2407C6.05688 14.6389 6.36827 14.9631 6.75167 14.9631C7.13506 14.9631 7.44645 14.6389 7.44645 14.2407V10.6554C7.44645 10.4718 7.37985 10.2956 7.25835 10.1607L1.53177 3.79326C1.44087 3.69206 1.38957 3.55806 1.38957 3.41937V1.99502C1.38957 1.69422 1.62627 1.44777 1.91606 1.44777H4.69611C5.0795 1.44777 5.39089 1.12355 5.39089 0.724356C5.39089 0.325164 5.0795 0 4.69611 0H1.91606C0.859483 0 0 0.894902 0 1.99502V3.41937C0 3.9282 0.183596 4.41173 0.51749 4.78375L6.05688 10.9412V14.2407ZM6.20034 17.5865C6.31823 17.847 6.56933 18 6.83122 18C6.92932 18 7.02922 17.9787 7.12372 17.9333L11.0125 16.0699C11.2564 15.953 11.4139 15.7009 11.4139 15.4218V10.8412L17.4249 4.76064C17.7903 4.39259 18 3.879 18 3.35243V1.97389C18 0.88552 17.1396 0.000176142 16.083 0.000176142H8.0741C7.69071 0.000176142 7.37931 0.321866 7.37931 0.715868C7.37931 1.11172 7.69071 1.43249 8.0741 1.43249H16.083C16.3737 1.43249 16.6095 1.6763 16.6095 1.97389V3.35243C16.6095 3.49612 16.5528 3.63704 16.452 3.73809L10.2323 10.031C10.0991 10.1654 10.0235 10.3499 10.0235 10.5418V14.9648L6.53783 16.6344C6.18954 16.8013 6.03924 17.2268 6.20034 17.5865Z" fill="url(#paint0_linear_210_1030)"/>
<defs>
<linearGradient id="paint0_linear_210_1030" x1="19.7027" y1="12" x2="4.19814" y2="11.6275" gradientUnits="userSpaceOnUse">
<stop stop-color="#0B3FC5"/>
<stop offset="1" stop-color="#0681E4"/>
</linearGradient>
</defs>
</svg>
