<svg width="9" height="16" viewBox="0 0 9 16" fill="none" xmlns="http://www.w3.org/2000/svg">
<path fill-rule="evenodd" clip-rule="evenodd" d="M8.756 0.242789C9.08059 0.56431 9.08282 1.08555 8.75377 1.40707L3.88833 6.17172L3.80238 6.24513C3.47352 6.48973 3.00344 6.46416 2.70488 6.16843C2.54314 6.00822 2.4606 5.79753 2.4606 5.58794C2.4606 5.37725 2.54315 5.16546 2.70711 5.00525L7.57255 0.239497L7.6585 0.16609C7.98737 -0.0785104 8.45744 -0.0529439 8.756 0.242789ZM8.82914 14.6783C9.08021 15.001 9.05354 15.4636 8.756 15.7583C8.4303 16.0798 7.90048 16.0809 7.57255 15.7594L0.246507 8.5828L0.171314 8.49872C0.0573196 8.35233 0 8.1766 0 8.00011C0 7.79052 0.0825405 7.57983 0.244276 7.41962C0.569977 7.097 1.0998 7.0959 1.42773 7.41742L8.75377 14.594L8.82914 14.6783Z" fill="#FF693E"/>
</svg>
