<svg width="9" height="16" viewBox="0 0 9 16" fill="none" xmlns="http://www.w3.org/2000/svg">
<path fill-rule="evenodd" clip-rule="evenodd" d="M0.243997 0.242789C-0.0805887 0.56431 -0.0828195 1.08555 0.246228 1.40707L5.11167 6.17172L5.19762 6.24513C5.52648 6.48973 5.99656 6.46416 6.29512 6.16843C6.45686 6.00822 6.5394 5.79753 6.5394 5.58794C6.5394 5.37725 6.45685 5.16546 6.29289 5.00525L1.42745 0.239497L1.3415 0.16609C1.01263 -0.0785104 0.542556 -0.0529439 0.243997 0.242789ZM0.170862 14.6783C-0.0802091 15.001 -0.0535399 15.4636 0.243997 15.7583C0.569698 16.0798 1.09952 16.0809 1.42745 15.7594L8.75349 8.5828L8.82869 8.49872C8.94268 8.35233 9 8.1766 9 8.00011C9 7.79052 8.91746 7.57983 8.75572 7.41962C8.43002 7.097 7.9002 7.0959 7.57227 7.41742L0.246228 14.594L0.170862 14.6783Z" fill="#0866D7"/>
</svg>
