<svg width="31" height="90" viewBox="0 0 31 90" fill="none" xmlns="http://www.w3.org/2000/svg">
<rect x="0.5" y="0.5" width="30" height="89" rx="4.5" fill="#FAFAFA"/>
<g clip-path="url(#clip0_120_791)">
<path fill-rule="evenodd" clip-rule="evenodd" d="M23.7572 41.244C23.4357 40.9194 22.9144 40.9172 22.5929 41.2462L17.8283 46.1117L17.7549 46.1976C17.5103 46.5265 17.5358 46.9966 17.8316 47.2951C17.9918 47.4569 18.2025 47.5394 18.4121 47.5394C18.6227 47.5394 18.8345 47.4568 18.9947 47.2929L23.7605 42.4274L23.8339 42.3415C24.0785 42.0126 24.0529 41.5426 23.7572 41.244ZM9.3217 41.1709C8.999 40.9198 8.5364 40.9465 8.2417 41.244C7.9202 41.5697 7.9191 42.0995 8.2406 42.4274L15.4172 49.7535L15.5013 49.8287C15.6477 49.9427 15.8234 50 15.9999 50C16.2095 50 16.4202 49.9175 16.5804 49.7557C16.903 49.43 16.9041 48.9002 16.5826 48.5723L9.406 41.2462L9.3217 41.1709Z" fill="#0866D7"/>
</g>
<rect x="0.5" y="0.5" width="30" height="89" rx="4.5" stroke="#0866D7"/>
<defs>
<clipPath id="clip0_120_791">
<rect width="9" height="16" fill="white" transform="translate(24 41) rotate(90)"/>
</clipPath>
</defs>
</svg>
