<svg width="31" height="90" viewBox="0 0 31 90" fill="none" xmlns="http://www.w3.org/2000/svg">
<rect x="0.5" y="0.5" width="30" height="89" rx="4.5" fill="#FAFAFA"/>
<g clip-path="url(#clip0_120_835)">
<path fill-rule="evenodd" clip-rule="evenodd" d="M8.24279 49.756C8.56431 50.0806 9.08555 50.0828 9.40707 49.7538L14.1717 44.8883L14.2451 44.8024C14.4897 44.4735 14.4642 44.0034 14.1684 43.7049C14.0082 43.5431 13.7975 43.4606 13.5879 43.4606C13.3773 43.4606 13.1655 43.5432 13.0053 43.7071L8.2395 48.5726L8.16609 48.6585C7.92149 48.9874 7.94706 49.4574 8.24279 49.756ZM22.6783 49.8291C23.001 50.0802 23.4636 50.0535 23.7583 49.756C24.0798 49.4303 24.0809 48.9005 23.7594 48.5726L16.5828 41.2465L16.4987 41.1713C16.3523 41.0573 16.1766 41 16.0001 41C15.7905 41 15.5798 41.0825 15.4196 41.2443C15.097 41.57 15.0959 42.0998 15.4174 42.4277L22.594 49.7538L22.6783 49.8291Z" fill="#0866D7"/>
</g>
<rect x="0.5" y="0.5" width="30" height="89" rx="4.5" stroke="#0866D7"/>
<defs>
<clipPath id="clip0_120_835">
<rect width="9" height="16" fill="white" transform="translate(8 50) rotate(-90)"/>
</clipPath>
</defs>
</svg>
