<svg width="25" height="25" viewBox="0 0 25 25" fill="none" xmlns="http://www.w3.org/2000/svg">
<path fill-rule="evenodd" clip-rule="evenodd" d="M7.92769 2.79308C8.23429 2.64789 8.54889 2.51685 8.87066 2.40081L10.09 0.289585C10.1864 0.128704 10.3792 0 10.6041 0H14.3958C14.6208 0 14.8136 0.0965282 14.91 0.289585L16.1284 2.39929C16.4515 2.51544 16.7674 2.64665 17.0753 2.79208L19.4402 2.15552C19.633 2.09117 19.8579 2.15552 20.0186 2.3164L22.6857 4.98701C22.8463 5.14789 22.9106 5.37313 22.8463 5.56618L22.2087 7.94135C22.3507 8.24535 22.4786 8.55714 22.5918 8.87593L24.7109 10.103C24.8715 10.1996 25.0001 10.3926 25.0001 10.6178V14.3824C25.0001 14.6077 24.9037 14.8007 24.7109 14.8973L22.5612 16.1421C22.4529 16.4412 22.3316 16.734 22.198 17.02L22.8465 19.4354C22.9107 19.6284 22.8465 19.8536 22.6858 20.0145L20.0187 22.6851C19.8581 22.846 19.6332 22.9104 19.4403 22.846L17.0271 22.1964C16.7421 22.3298 16.4503 22.4509 16.1523 22.5591L14.91 24.7102C14.8136 24.8711 14.6208 24.9998 14.3958 24.9998H10.6041C10.3792 24.9998 10.1864 24.9033 10.09 24.7102L8.84768 22.5592C8.54957 22.4509 8.25765 22.3297 7.97258 22.1964L5.55913 22.846C5.36633 22.9104 5.1414 22.846 4.98073 22.6851L2.31367 20.0145C2.153 19.8536 2.08874 19.6284 2.153 19.4354L2.80155 17.0195C2.6746 16.7476 2.55871 16.4695 2.45447 16.1857L0.289199 14.9318C0.128533 14.8353 0 14.6422 0 14.417V10.6202C0 10.395 0.128533 10.2019 0.321333 10.1054L2.41455 8.89323C2.52737 8.57527 2.65475 8.26423 2.7959 7.96092L2.153 5.56618C2.08874 5.37313 2.153 5.14789 2.31367 4.98701L4.98073 2.3164C5.1414 2.15552 5.36633 2.09117 5.55913 2.15552L7.92769 2.79308ZM12.4999 20.8499C7.90484 20.8499 4.17739 17.1175 4.17739 12.4842C4.17739 7.85081 7.90484 4.15056 12.4999 4.15056C17.095 4.15056 20.8224 7.88298 20.8224 12.4842C20.8224 17.0853 17.095 20.8499 12.4999 20.8499Z" fill="url(#paint0_linear_301_1923)"/>
<defs>
<linearGradient id="paint0_linear_301_1923" x1="9.31323e-08" y1="25" x2="25.6645" y2="24.2981" gradientUnits="userSpaceOnUse">
<stop stop-color="#53CDEF"/>
<stop offset="1" stop-color="#467CD7"/>
</linearGradient>
</defs>
</svg>
