<svg width="29" height="29" viewBox="0 0 29 29" fill="none" xmlns="http://www.w3.org/2000/svg">
<rect width="29" height="29" rx="5" fill="#2C75FF"/>
<path d="M21.4755 12.6194H16.3656V7.50949C16.3656 7.22478 16.1409 7 15.8561 7H13.1289C12.8442 7 12.6194 7.22478 12.6194 7.50949V12.6194H7.50949C7.22478 12.6194 7 12.8442 7 13.1289V15.8711C7 16.1558 7.22478 16.3806 7.50949 16.3806H12.6194V21.4905C12.6194 21.7752 12.8442 22 13.1289 22H15.8711C16.1558 22 16.3806 21.7752 16.3806 21.4905V16.3656H21.4905C21.7752 16.3656 22 16.1409 22 15.8561V13.1289C21.985 12.8442 21.7602 12.6194 21.4755 12.6194Z" fill="white"/>
</svg>
