<svg width="50" height="50" viewBox="0 0 50 50" fill="none" xmlns="http://www.w3.org/2000/svg">
<rect width="50" height="50" rx="10" fill="#FF5858"/>
<path d="M14.45 35.69C13.85 35.09 13.85 34.17 14.45 33.57L33.57 14.45C34.17 13.85 35.09 13.85 35.69 14.45C36.29 15.05 36.29 15.97 35.69 16.57L16.57 35.69C15.97 36.29 15.01 36.29 14.45 35.69Z" fill="#F2F6F7"/>
<path d="M35.65 35.69C35.05 36.29 34.13 36.29 33.53 35.69L14.45 16.61C13.85 16.01 13.85 15.09 14.45 14.49C15.05 13.89 15.97 13.89 16.57 14.49L35.69 33.61C36.25 34.17 36.25 35.13 35.65 35.69Z" fill="#F2F6F7"/>
</svg>
