<svg width="50" height="50" viewBox="0 0 50 50" fill="none" xmlns="http://www.w3.org/2000/svg">
<rect width="50" height="50" rx="10" fill="#63C7FF"/>
<path d="M41.88 23.2399C37.75 18.8649 31.94 16.1699 25.5 16.1699C19.06 16.1699 13.25 18.8649 9.12 23.2399C8.735 23.6249 8.35 24.0449 8 24.4999C8.35 24.9549 8.735 25.3749 9.12 25.7599C13.25 30.1349 19.06 32.8299 25.5 32.8299C31.94 32.8299 37.75 30.0999 41.88 25.7599C42.265 25.3399 42.65 24.9199 43 24.4999C42.65 24.0449 42.265 23.6249 41.88 23.2399ZM25.5 31.1849C19.48 31.1849 14.055 28.5949 10.24 24.4999C14.055 20.4049 19.48 17.8149 25.5 17.8149C31.52 17.8149 36.945 20.4049 40.76 24.4999C36.945 28.5949 31.52 31.1849 25.5 31.1849Z" fill="#FAFCFD"/>
<path d="M25.4999 17.8149C21.8249 17.8149 18.8149 20.7899 18.8149 24.4999C18.8149 28.1749 21.7899 31.1849 25.4999 31.1849C29.2099 31.1849 32.1849 28.1749 32.1849 24.4999C32.1849 20.8249 29.1749 17.8149 25.4999 17.8149ZM25.4999 30.6949C22.0699 30.6949 19.3049 27.9299 19.3049 24.4999C19.3049 21.0699 22.0699 18.3049 25.4999 18.3049C28.9299 18.3049 31.6949 21.0699 31.6949 24.4999C31.6949 27.9299 28.9299 30.6949 25.4999 30.6949Z" fill="#FAFCFD"/>
</svg>
