<svg width="10" height="16" viewBox="0 0 10 16" fill="none" xmlns="http://www.w3.org/2000/svg">
<path fill-rule="evenodd" clip-rule="evenodd" d="M0.271108 15.7583C-0.089543 15.4368 -0.0920218 14.9155 0.273586 14.594L8.41363 7.41738C8.778 7.09586 9.36669 7.09695 9.72858 7.41957C9.90829 7.57978 10 7.79048 10 8.00007C10 8.21186 9.90829 8.42255 9.7261 8.58276L1.58606 15.7594C1.22169 16.0809 0.632998 16.0798 0.271108 15.7583ZM0.273586 1.40728C-0.0920219 1.08576 -0.0895432 0.56452 0.271107 0.242998C0.632997 -0.0796223 1.22169 -0.080719 1.58606 0.239706L6.9921 5.00548C7.17428 5.16569 7.26599 5.37748 7.26599 5.58817C7.26599 5.79776 7.17428 6.00845 6.99458 6.16867C6.63269 6.49129 6.04399 6.49238 5.67963 6.17196L0.273586 1.40728Z" fill="#434343"/>
</svg>
