<svg width="21" height="22" viewBox="0 0 21 22" fill="none" xmlns="http://www.w3.org/2000/svg">
<path d="M10.5029 12.4078C11.6308 12.4066 12.733 12.0711 13.6702 11.4436C14.6074 10.8161 15.3375 9.92488 15.7683 8.88252C16.1991 7.84016 16.3112 6.69349 16.0904 5.58743C15.8697 4.48138 15.3259 3.46561 14.528 2.66851C13.7301 1.8714 12.7137 1.32876 11.6074 1.10916C10.5011 0.889563 9.35459 1.00287 8.31269 1.43476C7.27079 1.86666 6.38032 2.59774 5.75383 3.53561C5.12735 4.47349 4.79297 5.57604 4.79297 6.70391C4.79457 8.21723 5.39685 9.66803 6.4675 10.7375C7.53815 11.8071 8.98958 12.4078 10.5029 12.4078ZM10.5029 1.88124C11.4579 1.88124 12.3915 2.16444 13.1856 2.69502C13.9797 3.22561 14.5986 3.97975 14.964 4.86208C15.3295 5.74441 15.4251 6.7153 15.2388 7.65198C15.0525 8.58865 14.5926 9.44905 13.9173 10.1244C13.242 10.7997 12.3816 11.2596 11.4449 11.4459C10.5083 11.6322 9.53738 11.5366 8.65504 11.1711C7.77271 10.8056 7.01857 10.1867 6.48798 9.39263C5.9574 8.59855 5.6742 7.66497 5.6742 6.70994C5.6742 5.42929 6.18294 4.20109 7.08849 3.29553C7.99405 2.38998 9.22225 1.88124 10.5029 1.88124Z" fill="#171717" stroke="#171717" stroke-width="0.5"/>
<path d="M15.2103 14.4196H5.78227C5.07602 14.4196 4.3767 14.5587 3.72422 14.829C3.07173 15.0993 2.47886 15.4954 1.97947 15.9948C1.48008 16.4942 1.08395 17.087 0.813682 17.7395C0.543414 18.392 0.404297 19.0913 0.404297 19.7976V20.5943C0.404297 21.1557 1.27951 21.1195 1.27951 20.5581V19.7976C1.27951 18.6034 1.75389 17.4581 2.59833 16.6137C3.44276 15.7692 4.58806 15.2948 5.78227 15.2948H15.2103C15.8021 15.294 16.3883 15.4099 16.9353 15.6358C17.4823 15.8618 17.9794 16.1933 18.3982 16.6115C18.8169 17.0297 19.1491 17.5264 19.3758 18.0731C19.6024 18.6198 19.7191 19.2058 19.7191 19.7976V20.5581C19.7191 21.1195 20.5883 21.1617 20.5943 20.5943V19.7976C20.5943 19.0908 20.455 18.391 20.1844 17.7381C19.9137 17.0853 19.517 16.4921 19.017 15.9927C18.517 15.4932 17.9234 15.0972 17.2702 14.8273C16.617 14.5573 15.9171 14.4188 15.2103 14.4196Z" fill="#171717" stroke="#171717" stroke-width="0.5"/>
</svg>
