<svg width="24" height="21" viewBox="0 0 24 21" fill="none" xmlns="http://www.w3.org/2000/svg">
<path d="M20.496 18.7048C20.496 19.5562 19.8058 20.2464 18.9544 20.2464C18.103 20.2464 17.4128 19.5562 17.4128 18.7048C17.4128 17.8535 18.103 17.1633 18.9544 17.1633C19.8058 17.1633 20.496 17.8535 20.496 18.7048Z" fill="#171717"/>
<path d="M10.4757 18.7048C10.4757 19.5562 9.78554 20.2464 8.93415 20.2464C8.08277 20.2464 7.39258 19.5562 7.39258 18.7048C7.39258 17.8535 8.08277 17.1633 8.93415 17.1633C9.78554 17.1633 10.4757 17.8535 10.4757 18.7048Z" fill="#171717"/>
<path d="M10.4757 18.7048C10.4757 19.5562 9.78554 20.2464 8.93415 20.2464C8.08277 20.2464 7.39258 19.5562 7.39258 18.7048C7.39258 17.8535 8.08277 17.1633 8.93415 17.1633C9.78554 17.1633 10.4757 17.8535 10.4757 18.7048Z" fill="#171717"/>
<path fill-rule="evenodd" clip-rule="evenodd" d="M2.96625 1.73789C2.67708 1.70181 2.28969 1.70049 1.68352 1.70049H1.22707C0.825522 1.70049 0.5 1.37497 0.5 0.973416C0.5 0.571864 0.825522 0.246341 1.22707 0.246341H1.68352C1.69786 0.246341 1.71214 0.24634 1.72639 0.24634C2.27722 0.246307 2.75636 0.246279 3.14627 0.294924C3.56639 0.347338 3.97053 0.464738 4.32222 0.762218C4.6739 1.0597 4.8567 1.43877 4.97806 1.84438C5.04177 2.05733 5.09486 2.30102 5.14549 2.57086L19.2563 2.5624C20.0431 2.56189 20.7113 2.56146 21.2343 2.63627C21.7886 2.71557 22.3198 2.89659 22.7039 3.3723C23.088 3.84801 23.1531 4.40542 23.1138 4.96401C23.0767 5.49102 22.9355 6.14419 22.7692 6.91322L22.257 9.28309C22.1457 9.79805 22.0487 10.2471 21.9247 10.6043C21.791 10.9897 21.6008 11.3476 21.2556 11.6262C20.9104 11.9047 20.5204 12.0149 20.1155 12.0642C19.7401 12.1099 19.2807 12.1099 18.7539 12.1099L6.75365 12.1099L6.7858 12.301C6.88633 12.8988 6.95187 13.2806 7.0354 13.5598C7.11312 13.8195 7.18234 13.9021 7.23724 13.9486C7.29213 13.995 7.38505 14.0496 7.65409 14.0831C7.94326 14.1192 8.33065 14.1205 8.93682 14.1205H20.4759C20.8775 14.1205 21.203 14.446 21.203 14.8476C21.203 15.2492 20.8775 15.5747 20.4759 15.5747L8.89394 15.5747C8.34311 15.5747 7.86397 15.5747 7.47407 15.5261C7.05394 15.4737 6.6498 15.3563 6.29812 15.0588C5.94643 14.7613 5.76364 14.3822 5.64228 13.9766C5.52964 13.6002 5.45021 13.1277 5.35889 12.5845L3.83454 3.51998C3.73401 2.9222 3.66846 2.5404 3.58493 2.26121C3.50721 2.00147 3.438 1.91889 3.3831 1.87245C3.3282 1.82601 3.23529 1.77145 2.96625 1.73789ZM6.50911 10.6557H18.7124C19.2928 10.6557 19.6627 10.6545 19.9397 10.6208C20.197 10.5894 20.288 10.5384 20.3424 10.4945C20.3969 10.4506 20.4659 10.3724 20.5509 10.1276C20.6424 9.8639 20.7218 9.50267 20.8444 8.93536L21.3365 6.65865C21.5173 5.82246 21.6344 5.27234 21.6632 4.86202C21.6907 4.4713 21.6253 4.35115 21.5725 4.28582C21.5198 4.22048 21.4161 4.13123 21.0284 4.07576C20.6212 4.01752 20.0588 4.01607 19.2032 4.01658L5.39401 4.02486L6.50911 10.6557Z" fill="#171717"/>
</svg>
