<svg width="21" height="21" viewBox="0 0 21 21" fill="none" xmlns="http://www.w3.org/2000/svg">
<path fill-rule="evenodd" clip-rule="evenodd" d="M7.81395 0.976744H1.95349C1.41405 0.976744 0.976744 1.41405 0.976744 1.95349V10.2558C0.976744 10.7953 1.41405 11.2326 1.95349 11.2326H7.81395C8.35339 11.2326 8.7907 10.7953 8.7907 10.2558V1.95349C8.7907 1.41405 8.35339 0.976744 7.81395 0.976744ZM19.0465 0.976744H13.186C12.6466 0.976744 12.2093 1.41405 12.2093 1.95349V5.86047C12.2093 6.39991 12.6466 6.83721 13.186 6.83721H19.0465C19.586 6.83721 20.0233 6.39991 20.0233 5.86047V1.95349C20.0233 1.41405 19.586 0.976744 19.0465 0.976744ZM19.0465 10.2558H13.186C12.6466 10.2558 12.2093 10.6931 12.2093 11.2326V19.0465C12.2093 19.586 12.6466 20.0233 13.186 20.0233H19.0465C19.586 20.0233 20.0233 19.586 20.0233 19.0465V11.2326C20.0233 10.6931 19.586 10.2558 19.0465 10.2558ZM7.81395 14.6512H1.95349C1.41405 14.6512 0.976744 15.0885 0.976744 15.6279V19.0465C0.976744 19.586 1.41405 20.0233 1.95349 20.0233H7.81395C8.35339 20.0233 8.7907 19.586 8.7907 19.0465V15.6279C8.7907 15.0885 8.35339 14.6512 7.81395 14.6512ZM1.95349 0C0.874607 0 0 0.874607 0 1.95349V10.2558C0 11.3347 0.874606 12.2093 1.95349 12.2093H7.81395C8.89284 12.2093 9.76744 11.3347 9.76744 10.2558V1.95349C9.76744 0.874607 8.89284 0 7.81395 0H1.95349ZM13.186 0C12.1072 0 11.2326 0.874607 11.2326 1.95349V5.86047C11.2326 6.93935 12.1072 7.81395 13.186 7.81395H19.0465C20.1254 7.81395 21 6.93935 21 5.86047V1.95349C21 0.874607 20.1254 0 19.0465 0H13.186ZM11.2326 11.2326C11.2326 10.1537 12.1072 9.27907 13.186 9.27907H19.0465C20.1254 9.27907 21 10.1537 21 11.2326V19.0465C21 20.1254 20.1254 21 19.0465 21H13.186C12.1072 21 11.2326 20.1254 11.2326 19.0465V11.2326ZM1.95349 13.6744C0.874607 13.6744 0 14.549 0 15.6279V19.0465C0 20.1254 0.874606 21 1.95349 21H7.81395C8.89284 21 9.76744 20.1254 9.76744 19.0465V15.6279C9.76744 14.549 8.89284 13.6744 7.81395 13.6744H1.95349Z" fill="#171717"/>
</svg>
