<svg width="22" height="21" viewBox="0 0 22 21" fill="none" xmlns="http://www.w3.org/2000/svg">
<path fill-rule="evenodd" clip-rule="evenodd" d="M20.1981 9.03187L11.4481 1.7402C11.1885 1.52387 10.8115 1.52387 10.5519 1.7402L1.80187 9.03187C1.64228 9.16486 1.55 9.36188 1.55 9.56962V19.25C1.55 19.6366 1.8634 19.95 2.25 19.95H5.75C6.1366 19.95 6.45 19.6366 6.45 19.25V15.75C6.45 14.2036 7.7036 12.95 9.25 12.95H12.75C14.2964 12.95 15.55 14.2036 15.55 15.75V19.25C15.55 19.6366 15.8634 19.95 16.25 19.95H19.75C20.1366 19.95 20.45 19.6366 20.45 19.25V9.56962C20.45 9.36188 20.3577 9.16486 20.1981 9.03187ZM20.8703 8.22523C21.2693 8.55772 21.5 9.05026 21.5 9.56962V19.25C21.5 20.2165 20.7165 21 19.75 21H16.25C15.2835 21 14.5 20.2165 14.5 19.25V15.75C14.5 14.7835 13.7165 14 12.75 14H9.25C8.2835 14 7.5 14.7835 7.5 15.75V19.25C7.5 20.2165 6.7165 21 5.75 21H2.25C1.2835 21 0.5 20.2165 0.5 19.25V9.56962C0.5 9.05026 0.73069 8.55772 1.12968 8.22523L9.87968 0.933567C10.5287 0.39275 11.4713 0.39275 12.1203 0.933567L20.8703 8.22523Z" fill="black"/>
</svg>
