<svg width="12" height="20" viewBox="0 0 12 20" fill="none" xmlns="http://www.w3.org/2000/svg">
<path fill-rule="evenodd" clip-rule="evenodd" d="M10 1H2C1.44772 1 1 1.44772 1 2V18C1 18.5523 1.44772 19 2 19H10C10.5523 19 11 18.5523 11 18V2C11 1.44772 10.5523 1 10 1ZM2 0C0.895431 0 0 0.895431 0 2V18C0 19.1046 0.895431 20 2 20H10C11.1046 20 12 19.1046 12 18V2C12 0.895431 11.1046 0 10 0H2Z" fill="#171717"/>
<path d="M4.5 2C4.5 1.72386 4.72386 1.5 5 1.5H7C7.27614 1.5 7.5 1.72386 7.5 2C7.5 2.27614 7.27614 2.5 7 2.5H5C4.72386 2.5 4.5 2.27614 4.5 2Z" fill="#171717"/>
<path d="M4 18.6C4 18.5448 4.04477 18.5 4.1 18.5H7.9C7.95523 18.5 8 18.5448 8 18.6C8 18.6552 7.95523 18.7 7.9 18.7H4.1C4.04477 18.7 4 18.6552 4 18.6Z" fill="#171717"/>
</svg>
