<svg width="231" height="31" viewBox="0 0 231 31" fill="none" xmlns="http://www.w3.org/2000/svg">
<path d="M3.5018 27.603C1.54292 25.4737 0.563477 22.7115 0.563477 19.3162C0.563477 15.9209 1.54292 13.1731 3.5018 11.0726C5.4895 8.94334 7.96691 7.87872 10.934 7.87872C12.8065 7.87872 14.5205 8.42542 16.0761 9.51882C16.7387 9.97919 17.3292 10.5115 17.8478 11.1157H18.0638V0.109863H22.6009V30.3221H18.0638V27.5167H17.8478C17.358 28.1209 16.7675 28.6676 16.0761 29.1568C14.5493 30.2214 12.8353 30.7537 10.934 30.7537C7.96691 30.7537 5.4895 29.7035 3.5018 27.603ZM7.04508 13.878C5.8928 15.144 5.31665 16.9568 5.31665 19.3162C5.31665 21.6756 5.8928 23.4884 7.04508 24.7544C8.19737 26.0204 9.78176 26.6535 11.7983 26.6535C13.6995 26.6535 15.2119 26.0204 16.3354 24.7544C17.4877 23.4596 18.0638 21.6469 18.0638 19.3162C18.0638 16.9856 17.4877 15.1872 16.3354 13.9212C15.2119 12.6264 13.6995 11.979 11.7983 11.979C9.78176 11.979 8.19737 12.612 7.04508 13.878ZM27.1211 30.3221V8.31033H31.6583V11.5473H31.8743C32.1912 10.9431 32.6521 10.3676 33.257 9.82094C34.5822 8.67 36.1378 8.09452 37.9238 8.09452H40.5164V12.4106H37.7077C35.9505 12.4106 34.4958 12.9716 33.3435 14.0938C32.22 15.1872 31.6583 16.6403 31.6583 18.453V30.3221H27.1211ZM45.2545 27.4735C43.094 25.2579 42.0137 22.5388 42.0137 19.3162C42.0137 16.0936 43.094 13.3889 45.2545 11.2021C47.4438 8.9865 50.1085 7.87872 53.2485 7.87872C56.3885 7.87872 59.0387 8.9865 61.1992 11.2021C63.3886 13.3889 64.4833 16.0936 64.4833 19.3162V20.8268H46.5508C46.8965 22.6396 47.6887 24.0638 48.9274 25.0997C50.1661 26.1355 51.6065 26.6535 53.2485 26.6535C55.265 26.6535 56.8782 26.1499 58.0881 25.1429C58.6354 24.74 59.1107 24.2365 59.514 23.6322H64.2672C63.6622 25.0421 62.8989 26.2362 61.977 27.2145C59.6148 29.574 56.7053 30.7537 53.2485 30.7537C50.1085 30.7537 47.4438 29.6603 45.2545 27.4735ZM46.7669 17.1582H59.7301C59.4708 15.7195 58.7794 14.4966 57.656 13.4896C56.5613 12.4825 55.0921 11.979 53.2485 11.979C51.6929 11.979 50.3102 12.4537 49.1003 13.4032C47.8904 14.324 47.1126 15.5756 46.7669 17.1582ZM69.3695 27.603C67.4106 25.4737 66.4312 22.7115 66.4312 19.3162C66.4312 15.9209 67.4106 13.1731 69.3695 11.0726C71.3572 8.94334 73.8346 7.87872 76.8017 7.87872C78.6742 7.87872 80.3882 8.42542 81.9438 9.51882C82.6064 9.97919 83.1969 10.5115 83.7154 11.1157H83.9315V8.31033H88.4686V30.3221H83.9315V27.3009H83.7154C83.2833 27.9051 82.6928 28.4806 81.9438 29.0273C80.3882 30.1782 78.6742 30.7537 76.8017 30.7537C73.8346 30.7537 71.3572 29.7035 69.3695 27.603ZM72.9128 13.878C71.7605 15.144 71.1843 16.9568 71.1843 19.3162C71.1843 21.6756 71.7605 23.4884 72.9128 24.7544C74.065 26.0204 75.6494 26.6535 77.6659 26.6535C79.5672 26.6535 81.0796 26.0204 82.2031 24.7544C83.3553 23.4596 83.9315 21.6469 83.9315 19.3162C83.9315 16.9856 83.3553 15.1872 82.2031 13.9212C81.0796 12.6264 79.5672 11.979 77.6659 11.979C75.6494 11.979 74.065 12.612 72.9128 13.878ZM92.9888 30.3221V8.31033H97.5259V11.3315H97.742C98.1165 10.6985 98.6062 10.1231 99.2112 9.60513C100.594 8.45419 102.265 7.87872 104.224 7.87872C106.557 7.87872 108.444 8.56929 109.884 9.95042C110.489 10.5259 110.979 11.2021 111.353 11.979H111.569C111.973 11.2308 112.534 10.5547 113.255 9.95042C114.81 8.56929 116.769 7.87872 119.131 7.87872C121.695 7.87872 123.697 8.68438 125.138 10.2957C126.607 11.8782 127.341 14.1657 127.341 17.1582V30.3221H122.804V17.374C122.804 13.7773 121.22 11.979 118.051 11.979C116.524 11.979 115.199 12.5832 114.076 13.7917C112.981 14.9714 112.434 16.4532 112.434 18.2372V30.3221H107.896V17.374C107.896 13.7773 106.312 11.979 103.143 11.979C101.617 11.979 100.291 12.5832 99.1679 13.7917C98.0733 14.9714 97.5259 16.4532 97.5259 18.2372V30.3221H92.9888ZM130.157 23.4164H135.126C135.328 23.9919 135.688 24.5386 136.206 25.0565C137.272 26.1211 138.712 26.6535 140.527 26.6535C142.112 26.6535 143.264 26.4089 143.984 25.9197C144.704 25.4306 145.064 24.812 145.064 24.0638C145.064 23.8049 145.007 23.5747 144.892 23.3733C144.776 23.1431 144.575 22.9417 144.287 22.769C143.998 22.5964 143.725 22.4525 143.466 22.3374C143.206 22.1936 142.817 22.0641 142.299 21.949C141.78 21.8051 141.363 21.7044 141.046 21.6469C140.729 21.5605 140.239 21.4454 139.577 21.3016C138.943 21.1577 138.468 21.057 138.151 20.9995C133.542 19.9636 131.237 17.748 131.237 14.3528C131.237 12.6264 132.029 11.1157 133.614 9.82094C135.198 8.52613 137.286 7.87872 139.879 7.87872C143.48 7.87872 146.173 9.02966 147.959 11.3315C148.766 12.3386 149.313 13.4896 149.601 14.7844H144.848C144.618 14.2089 144.301 13.7485 143.898 13.4032C142.889 12.4537 141.55 11.979 139.879 11.979C138.583 11.979 137.603 12.2091 136.941 12.6695C136.307 13.1299 135.99 13.7054 135.99 14.3959C135.99 14.6549 136.048 14.8995 136.163 15.1297C136.278 15.3311 136.48 15.5181 136.768 15.6907C137.056 15.8634 137.33 16.0072 137.589 16.1223C137.877 16.2374 138.266 16.3669 138.756 16.5108C139.245 16.6259 139.663 16.7266 140.009 16.8129C140.354 16.8705 140.83 16.9712 141.435 17.115C142.068 17.2301 142.558 17.3308 142.904 17.4172C147.513 18.453 149.818 20.6686 149.818 24.0638C149.818 25.9053 148.982 27.4879 147.311 28.8115C145.669 30.1063 143.408 30.7537 140.527 30.7537C136.782 30.7537 133.916 29.5308 131.928 27.0851C131.035 25.9629 130.445 24.74 130.157 23.4164ZM151.32 12.4106V8.31033H153.912V3.56269H158.45V8.31033H165.147V12.4106H158.45V26.2219H165.363V30.3221H153.912V12.4106H151.32ZM170.592 27.4735C168.402 25.2579 167.308 22.5388 167.308 19.3162C167.308 16.0936 168.402 13.3889 170.592 11.2021C172.81 8.9865 175.532 7.87872 178.759 7.87872C181.985 7.87872 184.693 8.9865 186.883 11.2021C189.101 13.3889 190.21 16.0936 190.21 19.3162C190.21 22.5388 189.101 25.2579 186.883 27.4735C184.693 29.6603 181.985 30.7537 178.759 30.7537C175.532 30.7537 172.81 29.6603 170.592 27.4735ZM173.919 14.0075C172.68 15.3311 172.061 17.1006 172.061 19.3162C172.061 21.5318 172.68 23.3157 173.919 24.6681C175.158 25.9917 176.771 26.6535 178.759 26.6535C180.747 26.6535 182.36 25.9917 183.599 24.6681C184.837 23.3157 185.457 21.5318 185.457 19.3162C185.457 17.1006 184.837 15.3311 183.599 14.0075C182.36 12.6551 180.747 11.979 178.759 11.979C176.771 11.979 175.158 12.6551 173.919 14.0075ZM193.443 30.3221V8.31033H197.981V11.5473H198.197C198.513 10.9431 198.974 10.3676 199.579 9.82094C200.904 8.67 202.46 8.09452 204.246 8.09452H206.839V12.4106H204.03C202.273 12.4106 200.818 12.9716 199.666 14.0938C198.542 15.1872 197.981 16.6403 197.981 18.453V30.3221H193.443ZM211.577 27.4735C209.417 25.2579 208.337 22.5388 208.337 19.3162C208.337 16.0936 209.417 13.3889 211.577 11.2021C213.767 8.9865 216.432 7.87872 219.571 7.87872C222.711 7.87872 225.362 8.9865 227.522 11.2021C229.712 13.3889 230.806 16.0936 230.806 19.3162V20.8268H212.874C213.22 22.6396 214.012 24.0638 215.25 25.0997C216.489 26.1355 217.929 26.6535 219.571 26.6535C221.588 26.6535 223.201 26.1499 224.411 25.1429C224.958 24.74 225.434 24.2365 225.837 23.6322H230.59C229.985 25.0421 229.222 26.2362 228.3 27.2145C225.938 29.574 223.028 30.7537 219.571 30.7537C216.432 30.7537 213.767 29.6603 211.577 27.4735ZM213.09 17.1582H226.053C225.794 15.7195 225.102 14.4966 223.979 13.4896C222.884 12.4825 221.415 11.979 219.571 11.979C218.016 11.979 216.633 12.4537 215.423 13.4032C214.213 14.324 213.436 15.5756 213.09 17.1582Z" fill="#171717"/>
</svg>
