<svg width="1720" height="102" viewBox="0 0 1720 102" fill="none" xmlns="http://www.w3.org/2000/svg">
<path d="M715.02 56.56V46.64H710.22L710.16 48.68C710.12 49.5467 710.06 50.3667 709.98 51.14C709.913 51.9133 709.806 52.62 709.66 53.26C709.513 53.8867 709.32 54.42 709.08 54.86C708.853 55.3 708.566 55.6133 708.22 55.8L704.76 55.36C705.24 55.3733 705.633 55.2067 705.94 54.86C706.26 54.5133 706.513 54.0267 706.7 53.4C706.886 52.76 707.02 52.0133 707.1 51.16C707.193 50.3067 707.26 49.38 707.3 48.38L707.46 44H718.22V56.56H715.02ZM704.3 60.9L704.32 55.36H720.18V60.9H717.18V58H707.3V60.9H704.3ZM727.044 58.16C725.897 58.16 724.877 57.92 723.984 57.44C723.104 56.96 722.404 56.3067 721.884 55.48C721.377 54.64 721.124 53.6867 721.124 52.62C721.124 51.54 721.377 50.5867 721.884 49.76C722.404 48.92 723.104 48.2667 723.984 47.8C724.877 47.32 725.897 47.08 727.044 47.08C728.177 47.08 729.19 47.32 730.084 47.8C730.977 48.2667 731.677 48.9133 732.184 49.74C732.69 50.5667 732.944 51.5267 732.944 52.62C732.944 53.6867 732.69 54.64 732.184 55.48C731.677 56.3067 730.977 56.96 730.084 57.44C729.19 57.92 728.177 58.16 727.044 58.16ZM727.044 55.6C727.564 55.6 728.03 55.48 728.444 55.24C728.857 55 729.184 54.66 729.424 54.22C729.664 53.7667 729.784 53.2333 729.784 52.62C729.784 51.9933 729.664 51.46 729.424 51.02C729.184 50.58 728.857 50.24 728.444 50C728.03 49.76 727.564 49.64 727.044 49.64C726.524 49.64 726.057 49.76 725.644 50C725.23 50.24 724.897 50.58 724.644 51.02C724.404 51.46 724.284 51.9933 724.284 52.62C724.284 53.2333 724.404 53.7667 724.644 54.22C724.897 54.66 725.23 55 725.644 55.24C726.057 55.48 726.524 55.6 727.044 55.6ZM740.43 58.24C739.55 58.24 738.75 58.1133 738.03 57.86C737.31 57.5933 736.683 57.1867 736.15 56.64C735.63 56.08 735.223 55.3667 734.93 54.5C734.65 53.6333 734.51 52.6 734.51 51.4C734.51 50.5467 734.583 49.7667 734.73 49.06C734.876 48.3533 735.096 47.7133 735.39 47.14C735.683 46.5533 736.056 46.04 736.51 45.6C736.976 45.1467 737.516 44.7733 738.13 44.48C738.756 44.1733 739.463 43.94 740.25 43.78L745.37 42.76L745.79 45.44L741.27 46.34C741.003 46.3933 740.696 46.4667 740.35 46.56C740.016 46.64 739.676 46.7667 739.33 46.94C738.996 47.1133 738.683 47.36 738.39 47.68C738.11 47.9867 737.883 48.3933 737.71 48.9C737.536 49.3933 737.45 50.0067 737.45 50.74C737.45 50.9667 737.456 51.14 737.47 51.26C737.496 51.38 737.516 51.5067 737.53 51.64C737.556 51.7733 737.57 51.98 737.57 52.26L736.57 51.28C736.863 50.6533 737.236 50.12 737.69 49.68C738.156 49.24 738.69 48.9067 739.29 48.68C739.903 48.44 740.583 48.32 741.33 48.32C742.343 48.32 743.23 48.5267 743.99 48.94C744.763 49.34 745.363 49.9067 745.79 50.64C746.216 51.3733 746.43 52.2067 746.43 53.14C746.43 54.1533 746.176 55.0467 745.67 55.82C745.163 56.58 744.456 57.1733 743.55 57.6C742.656 58.0267 741.616 58.24 740.43 58.24ZM740.59 55.82C741.11 55.82 741.57 55.7067 741.97 55.48C742.37 55.24 742.676 54.9267 742.89 54.54C743.116 54.14 743.23 53.6933 743.23 53.2C743.23 52.72 743.116 52.2933 742.89 51.92C742.676 51.5467 742.37 51.2533 741.97 51.04C741.57 50.8267 741.103 50.72 740.57 50.72C740.05 50.72 739.583 50.8267 739.17 51.04C738.756 51.24 738.436 51.52 738.21 51.88C737.983 52.24 737.87 52.66 737.87 53.14C737.87 53.6333 737.983 54.0867 738.21 54.5C738.45 54.9 738.77 55.22 739.17 55.46C739.583 55.7 740.056 55.82 740.59 55.82ZM754.811 58V55.9L754.611 55.44V51.68C754.611 51.0133 754.404 50.4933 753.991 50.12C753.591 49.7467 752.971 49.56 752.131 49.56C751.558 49.56 750.991 49.6533 750.431 49.84C749.884 50.0133 749.418 50.2533 749.031 50.56L747.911 48.38C748.498 47.9667 749.204 47.6467 750.031 47.42C750.858 47.1933 751.698 47.08 752.551 47.08C754.191 47.08 755.464 47.4667 756.371 48.24C757.278 49.0133 757.731 50.22 757.731 51.86V58H754.811ZM751.531 58.16C750.691 58.16 749.971 58.02 749.371 57.74C748.771 57.4467 748.311 57.0533 747.991 56.56C747.671 56.0667 747.511 55.5133 747.511 54.9C747.511 54.26 747.664 53.7 747.971 53.22C748.291 52.74 748.791 52.3667 749.471 52.1C750.151 51.82 751.038 51.68 752.131 51.68H754.991V53.5H752.471C751.738 53.5 751.231 53.62 750.951 53.86C750.684 54.1 750.551 54.4 750.551 54.76C750.551 55.16 750.704 55.48 751.011 55.72C751.331 55.9467 751.764 56.06 752.311 56.06C752.831 56.06 753.298 55.94 753.711 55.7C754.124 55.4467 754.424 55.08 754.611 54.6L755.091 56.04C754.864 56.7333 754.451 57.26 753.851 57.62C753.251 57.98 752.478 58.16 751.531 58.16ZM760.441 58V47.24H765.941C767.288 47.24 768.341 47.4867 769.101 47.98C769.861 48.46 770.241 49.14 770.241 50.02C770.241 50.9 769.881 51.5933 769.161 52.1C768.454 52.5933 767.514 52.84 766.341 52.84L766.661 52.12C767.968 52.12 768.941 52.36 769.581 52.84C770.234 53.32 770.561 54.02 770.561 54.94C770.561 55.8867 770.201 56.6333 769.481 57.18C768.761 57.7267 767.661 58 766.181 58H760.441ZM763.301 55.88H765.921C766.494 55.88 766.921 55.7867 767.201 55.6C767.494 55.4 767.641 55.1 767.641 54.7C767.641 54.2867 767.508 53.9867 767.241 53.8C766.974 53.6 766.554 53.5 765.981 53.5H763.301V55.88ZM763.301 51.66H765.661C766.208 51.66 766.614 51.56 766.881 51.36C767.161 51.16 767.301 50.8733 767.301 50.5C767.301 50.1133 767.161 49.8267 766.881 49.64C766.614 49.4533 766.208 49.36 765.661 49.36H763.301V51.66ZM772.883 58V47.24H775.983V53.64L781.223 47.24H784.083V58H780.983V51.6L775.763 58H772.883ZM789.382 58V49.08L790.082 49.8H785.742V47.24H796.122V49.8H791.782L792.482 49.08V58H789.382ZM803.605 50.68C805.018 50.6933 806.092 51.0133 806.825 51.64C807.572 52.2533 807.945 53.1267 807.945 54.26C807.945 55.4467 807.525 56.3733 806.685 57.04C805.845 57.6933 804.678 58.02 803.185 58.02L797.785 58V47.24H800.885V50.68H803.605ZM802.905 55.8C803.505 55.8133 803.965 55.6867 804.285 55.42C804.605 55.1533 804.765 54.7533 804.765 54.22C804.765 53.6867 804.605 53.3067 804.285 53.08C803.965 52.84 803.505 52.7133 802.905 52.7L800.885 52.68V55.8H802.905ZM823.178 58L819.578 52.9L822.118 51.4L826.858 58H823.178ZM815.558 58V47.24H818.678V58H815.558ZM817.758 53.92V51.42H821.518V53.92H817.758ZM822.418 52.98L819.498 52.66L823.278 47.24H826.598L822.418 52.98ZM834.635 58V55.9L834.435 55.44V51.68C834.435 51.0133 834.228 50.4933 833.815 50.12C833.415 49.7467 832.795 49.56 831.955 49.56C831.382 49.56 830.815 49.6533 830.255 49.84C829.708 50.0133 829.242 50.2533 828.855 50.56L827.735 48.38C828.322 47.9667 829.028 47.6467 829.855 47.42C830.682 47.1933 831.522 47.08 832.375 47.08C834.015 47.08 835.288 47.4667 836.195 48.24C837.102 49.0133 837.555 50.22 837.555 51.86V58H834.635ZM831.355 58.16C830.515 58.16 829.795 58.02 829.195 57.74C828.595 57.4467 828.135 57.0533 827.815 56.56C827.495 56.0667 827.335 55.5133 827.335 54.9C827.335 54.26 827.488 53.7 827.795 53.22C828.115 52.74 828.615 52.3667 829.295 52.1C829.975 51.82 830.862 51.68 831.955 51.68H834.815V53.5H832.295C831.562 53.5 831.055 53.62 830.775 53.86C830.508 54.1 830.375 54.4 830.375 54.76C830.375 55.16 830.528 55.48 830.835 55.72C831.155 55.9467 831.588 56.06 832.135 56.06C832.655 56.06 833.122 55.94 833.535 55.7C833.948 55.4467 834.248 55.08 834.435 54.6L834.915 56.04C834.688 56.7333 834.275 57.26 833.675 57.62C833.075 57.98 832.302 58.16 831.355 58.16ZM842.565 58V49.08L843.265 49.8H838.925V47.24H849.305V49.8H844.965L845.665 49.08V58H842.565ZM855.779 58.16C854.553 58.16 853.473 57.92 852.539 57.44C851.619 56.96 850.906 56.3067 850.399 55.48C849.893 54.64 849.639 53.6867 849.639 52.62C849.639 51.54 849.886 50.5867 850.379 49.76C850.886 48.92 851.573 48.2667 852.439 47.8C853.306 47.32 854.286 47.08 855.379 47.08C856.433 47.08 857.379 47.3067 858.219 47.76C859.073 48.2 859.746 48.84 860.239 49.68C860.733 50.5067 860.979 51.5 860.979 52.66C860.979 52.78 860.973 52.92 860.959 53.08C860.946 53.2267 860.933 53.3667 860.919 53.5H852.179V51.68H859.279L858.079 52.22C858.079 51.66 857.966 51.1733 857.739 50.76C857.513 50.3467 857.199 50.0267 856.799 49.8C856.399 49.56 855.933 49.44 855.399 49.44C854.866 49.44 854.393 49.56 853.979 49.8C853.579 50.0267 853.266 50.3533 853.039 50.78C852.813 51.1933 852.699 51.6867 852.699 52.26V52.74C852.699 53.3267 852.826 53.8467 853.079 54.3C853.346 54.74 853.713 55.08 854.179 55.32C854.659 55.5467 855.219 55.66 855.859 55.66C856.433 55.66 856.933 55.5733 857.359 55.4C857.799 55.2267 858.199 54.9667 858.559 54.62L860.219 56.42C859.726 56.98 859.106 57.4133 858.359 57.72C857.613 58.0133 856.753 58.16 855.779 58.16ZM863.371 58V47.24H871.991V49.8H865.771L866.471 49.12V58H863.371ZM878.235 58.16C877.088 58.16 876.068 57.92 875.175 57.44C874.295 56.96 873.595 56.3067 873.075 55.48C872.568 54.64 872.315 53.6867 872.315 52.62C872.315 51.54 872.568 50.5867 873.075 49.76C873.595 48.92 874.295 48.2667 875.175 47.8C876.068 47.32 877.088 47.08 878.235 47.08C879.368 47.08 880.382 47.32 881.275 47.8C882.168 48.2667 882.868 48.9133 883.375 49.74C883.882 50.5667 884.135 51.5267 884.135 52.62C884.135 53.6867 883.882 54.64 883.375 55.48C882.868 56.3067 882.168 56.96 881.275 57.44C880.382 57.92 879.368 58.16 878.235 58.16ZM878.235 55.6C878.755 55.6 879.222 55.48 879.635 55.24C880.048 55 880.375 54.66 880.615 54.22C880.855 53.7667 880.975 53.2333 880.975 52.62C880.975 51.9933 880.855 51.46 880.615 51.02C880.375 50.58 880.048 50.24 879.635 50C879.222 49.76 878.755 49.64 878.235 49.64C877.715 49.64 877.248 49.76 876.835 50C876.422 50.24 876.088 50.58 875.835 51.02C875.595 51.46 875.475 51.9933 875.475 52.62C875.475 53.2333 875.595 53.7667 875.835 54.22C876.088 54.66 876.422 55 876.835 55.24C877.248 55.48 877.715 55.6 878.235 55.6ZM892.621 58.16C891.714 58.16 890.921 57.96 890.241 57.56C889.561 57.16 889.028 56.5533 888.641 55.74C888.268 54.9133 888.081 53.8733 888.081 52.62C888.081 51.3533 888.261 50.3133 888.621 49.5C888.981 48.6867 889.501 48.08 890.181 47.68C890.861 47.28 891.674 47.08 892.621 47.08C893.634 47.08 894.541 47.3133 895.341 47.78C896.154 48.2333 896.794 48.8733 897.261 49.7C897.741 50.5267 897.981 51.5 897.981 52.62C897.981 53.7533 897.741 54.7333 897.261 55.56C896.794 56.3867 896.154 57.0267 895.341 57.48C894.541 57.9333 893.634 58.16 892.621 58.16ZM886.261 61.88V47.24H889.241V49.44L889.181 52.64L889.381 55.82V61.88H886.261ZM892.081 55.6C892.601 55.6 893.061 55.48 893.461 55.24C893.874 55 894.201 54.66 894.441 54.22C894.694 53.7667 894.821 53.2333 894.821 52.62C894.821 51.9933 894.694 51.46 894.441 51.02C894.201 50.58 893.874 50.24 893.461 50C893.061 49.76 892.601 49.64 892.081 49.64C891.561 49.64 891.094 49.76 890.681 50C890.268 50.24 889.941 50.58 889.701 51.02C889.461 51.46 889.341 51.9933 889.341 52.62C889.341 53.2333 889.461 53.7667 889.701 54.22C889.941 54.66 890.268 55 890.681 55.24C891.094 55.48 891.561 55.6 892.081 55.6ZM900.168 58V47.24H903.268V53.64L908.508 47.24H911.368V58H908.268V51.6L903.048 58H900.168ZM914.367 58V47.24H917.467V51.2H920.627V53.9H917.467V58H914.367ZM924.547 58.16C923.44 58.16 922.454 57.92 921.587 57.44C920.72 56.96 920.04 56.3067 919.547 55.48C919.054 54.64 918.807 53.6867 918.807 52.62C918.807 51.54 919.054 50.5867 919.547 49.76C920.04 48.92 920.72 48.2667 921.587 47.8C922.454 47.32 923.44 47.08 924.547 47.08C925.654 47.08 926.634 47.32 927.487 47.8C928.354 48.2667 929.034 48.92 929.527 49.76C930.02 50.5867 930.267 51.54 930.267 52.62C930.267 53.6867 930.02 54.64 929.527 55.48C929.034 56.32 928.354 56.98 927.487 57.46C926.634 57.9267 925.654 58.16 924.547 58.16ZM924.547 55.6C925.054 55.6 925.5 55.48 925.887 55.24C926.287 55 926.6 54.66 926.827 54.22C927.067 53.7667 927.187 53.2333 927.187 52.62C927.187 51.9933 927.067 51.46 926.827 51.02C926.6 50.58 926.287 50.24 925.887 50C925.5 49.76 925.054 49.64 924.547 49.64C924.054 49.64 923.6 49.76 923.187 50C922.787 50.24 922.467 50.58 922.227 51.02C922 51.46 921.887 51.9933 921.887 52.62C921.887 53.2333 922 53.7667 922.227 54.22C922.467 54.66 922.787 55 923.187 55.24C923.6 55.48 924.054 55.6 924.547 55.6ZM936.657 58L941.477 51.68L941.417 53.4L936.797 47.24H940.297L943.217 51.26L941.897 51.3L944.917 47.24H948.237L943.597 53.34V51.66L948.397 58H944.857L941.797 53.72L943.097 53.9L940.057 58H936.657ZM956.178 58V55.9L955.978 55.44V51.68C955.978 51.0133 955.771 50.4933 955.358 50.12C954.958 49.7467 954.338 49.56 953.498 49.56C952.925 49.56 952.358 49.6533 951.798 49.84C951.251 50.0133 950.785 50.2533 950.398 50.56L949.278 48.38C949.865 47.9667 950.571 47.6467 951.398 47.42C952.225 47.1933 953.065 47.08 953.918 47.08C955.558 47.08 956.831 47.4667 957.738 48.24C958.645 49.0133 959.098 50.22 959.098 51.86V58H956.178ZM952.898 58.16C952.058 58.16 951.338 58.02 950.738 57.74C950.138 57.4467 949.678 57.0533 949.358 56.56C949.038 56.0667 948.878 55.5133 948.878 54.9C948.878 54.26 949.031 53.7 949.338 53.22C949.658 52.74 950.158 52.3667 950.838 52.1C951.518 51.82 952.405 51.68 953.498 51.68H956.358V53.5H953.838C953.105 53.5 952.598 53.62 952.318 53.86C952.051 54.1 951.918 54.4 951.918 54.76C951.918 55.16 952.071 55.48 952.378 55.72C952.698 55.9467 953.131 56.06 953.678 56.06C954.198 56.06 954.665 55.94 955.078 55.7C955.491 55.4467 955.791 55.08 955.978 54.6L956.458 56.04C956.231 56.7333 955.818 57.26 955.218 57.62C954.618 57.98 953.845 58.16 952.898 58.16ZM968.148 58.16C967.242 58.16 966.448 57.96 965.768 57.56C965.088 57.16 964.555 56.5533 964.168 55.74C963.795 54.9133 963.608 53.8733 963.608 52.62C963.608 51.3533 963.788 50.3133 964.148 49.5C964.508 48.6867 965.028 48.08 965.708 47.68C966.388 47.28 967.202 47.08 968.148 47.08C969.162 47.08 970.068 47.3133 970.868 47.78C971.682 48.2333 972.322 48.8733 972.788 49.7C973.268 50.5267 973.508 51.5 973.508 52.62C973.508 53.7533 973.268 54.7333 972.788 55.56C972.322 56.3867 971.682 57.0267 970.868 57.48C970.068 57.9333 969.162 58.16 968.148 58.16ZM961.788 61.88V47.24H964.768V49.44L964.708 52.64L964.908 55.82V61.88H961.788ZM967.608 55.6C968.128 55.6 968.588 55.48 968.988 55.24C969.402 55 969.728 54.66 969.968 54.22C970.222 53.7667 970.348 53.2333 970.348 52.62C970.348 51.9933 970.222 51.46 969.968 51.02C969.728 50.58 969.402 50.24 968.988 50C968.588 49.76 968.128 49.64 967.608 49.64C967.088 49.64 966.622 49.76 966.208 50C965.795 50.24 965.468 50.58 965.228 51.02C964.988 51.46 964.868 51.9933 964.868 52.62C964.868 53.2333 964.988 53.7667 965.228 54.22C965.468 54.66 965.795 55 966.208 55.24C966.622 55.48 967.088 55.6 967.608 55.6ZM981.959 58V55.9L981.759 55.44V51.68C981.759 51.0133 981.553 50.4933 981.139 50.12C980.739 49.7467 980.119 49.56 979.279 49.56C978.706 49.56 978.139 49.6533 977.579 49.84C977.033 50.0133 976.566 50.2533 976.179 50.56L975.059 48.38C975.646 47.9667 976.353 47.6467 977.179 47.42C978.006 47.1933 978.846 47.08 979.699 47.08C981.339 47.08 982.613 47.4667 983.519 48.24C984.426 49.0133 984.879 50.22 984.879 51.86V58H981.959ZM978.679 58.16C977.839 58.16 977.119 58.02 976.519 57.74C975.919 57.4467 975.459 57.0533 975.139 56.56C974.819 56.0667 974.659 55.5133 974.659 54.9C974.659 54.26 974.813 53.7 975.119 53.22C975.439 52.74 975.939 52.3667 976.619 52.1C977.299 51.82 978.186 51.68 979.279 51.68H982.139V53.5H979.619C978.886 53.5 978.379 53.62 978.099 53.86C977.833 54.1 977.699 54.4 977.699 54.76C977.699 55.16 977.853 55.48 978.159 55.72C978.479 55.9467 978.913 56.06 979.459 56.06C979.979 56.06 980.446 55.94 980.859 55.7C981.273 55.4467 981.573 55.08 981.759 54.6L982.239 56.04C982.013 56.7333 981.599 57.26 980.999 57.62C980.399 57.98 979.626 58.16 978.679 58.16ZM995.21 58L991.61 52.9L994.15 51.4L998.89 58H995.21ZM987.59 58V47.24H990.71V58H987.59ZM989.79 53.92V51.42H993.55V53.92H989.79ZM994.45 52.98L991.53 52.66L995.31 47.24H998.63L994.45 52.98ZM1002.62 58V49.08L1003.32 49.8H998.984V47.24H1009.36V49.8H1005.02L1005.72 49.08V58H1002.62ZM1015.84 58.16C1014.61 58.16 1013.53 57.92 1012.6 57.44C1011.68 56.96 1010.96 56.3067 1010.46 55.48C1009.95 54.64 1009.7 53.6867 1009.7 52.62C1009.7 51.54 1009.94 50.5867 1010.44 49.76C1010.94 48.92 1011.63 48.2667 1012.5 47.8C1013.36 47.32 1014.34 47.08 1015.44 47.08C1016.49 47.08 1017.44 47.3067 1018.28 47.76C1019.13 48.2 1019.8 48.84 1020.3 49.68C1020.79 50.5067 1021.04 51.5 1021.04 52.66C1021.04 52.78 1021.03 52.92 1021.02 53.08C1021 53.2267 1020.99 53.3667 1020.98 53.5H1012.24V51.68H1019.34L1018.14 52.22C1018.14 51.66 1018.02 51.1733 1017.8 50.76C1017.57 50.3467 1017.26 50.0267 1016.86 49.8C1016.46 49.56 1015.99 49.44 1015.46 49.44C1014.92 49.44 1014.45 49.56 1014.04 49.8C1013.64 50.0267 1013.32 50.3533 1013.1 50.78C1012.87 51.1933 1012.76 51.6867 1012.76 52.26V52.74C1012.76 53.3267 1012.88 53.8467 1013.14 54.3C1013.4 54.74 1013.77 55.08 1014.24 55.32C1014.72 55.5467 1015.28 55.66 1015.92 55.66C1016.49 55.66 1016.99 55.5733 1017.42 55.4C1017.86 55.2267 1018.26 54.9667 1018.62 54.62L1020.28 56.42C1019.78 56.98 1019.16 57.4133 1018.42 57.72C1017.67 58.0133 1016.81 58.16 1015.84 58.16ZM1029.77 58.16C1028.86 58.16 1028.07 57.96 1027.39 57.56C1026.71 57.16 1026.18 56.5533 1025.79 55.74C1025.42 54.9133 1025.23 53.8733 1025.23 52.62C1025.23 51.3533 1025.41 50.3133 1025.77 49.5C1026.13 48.6867 1026.65 48.08 1027.33 47.68C1028.01 47.28 1028.82 47.08 1029.77 47.08C1030.78 47.08 1031.69 47.3133 1032.49 47.78C1033.3 48.2333 1033.94 48.8733 1034.41 49.7C1034.89 50.5267 1035.13 51.5 1035.13 52.62C1035.13 53.7533 1034.89 54.7333 1034.41 55.56C1033.94 56.3867 1033.3 57.0267 1032.49 57.48C1031.69 57.9333 1030.78 58.16 1029.77 58.16ZM1023.41 61.88V47.24H1026.39V49.44L1026.33 52.64L1026.53 55.82V61.88H1023.41ZM1029.23 55.6C1029.75 55.6 1030.21 55.48 1030.61 55.24C1031.02 55 1031.35 54.66 1031.59 54.22C1031.84 53.7667 1031.97 53.2333 1031.97 52.62C1031.97 51.9933 1031.84 51.46 1031.59 51.02C1031.35 50.58 1031.02 50.24 1030.61 50C1030.21 49.76 1029.75 49.64 1029.23 49.64C1028.71 49.64 1028.24 49.76 1027.83 50C1027.42 50.24 1027.09 50.58 1026.85 51.02C1026.61 51.46 1026.49 51.9933 1026.49 52.62C1026.49 53.2333 1026.61 53.7667 1026.85 54.22C1027.09 54.66 1027.42 55 1027.83 55.24C1028.24 55.48 1028.71 55.6 1029.23 55.6ZM1037.32 58V47.24H1040.42V53.64L1045.66 47.24H1048.52V58H1045.42V51.6L1040.2 58H1037.32ZM1056.64 58.16C1055.48 58.16 1054.44 57.9267 1053.54 57.46C1052.63 56.98 1051.92 56.32 1051.4 55.48C1050.89 54.64 1050.64 53.6867 1050.64 52.62C1050.64 51.54 1050.89 50.5867 1051.4 49.76C1051.92 48.92 1052.63 48.2667 1053.54 47.8C1054.44 47.32 1055.48 47.08 1056.64 47.08C1057.77 47.08 1058.76 47.32 1059.6 47.8C1060.44 48.2667 1061.06 48.94 1061.46 49.82L1059.04 51.12C1058.76 50.6133 1058.4 50.24 1057.98 50C1057.56 49.76 1057.11 49.64 1056.62 49.64C1056.08 49.64 1055.6 49.76 1055.18 50C1054.75 50.24 1054.41 50.58 1054.16 51.02C1053.92 51.46 1053.8 51.9933 1053.8 52.62C1053.8 53.2467 1053.92 53.78 1054.16 54.22C1054.41 54.66 1054.75 55 1055.18 55.24C1055.6 55.48 1056.08 55.6 1056.62 55.6C1057.11 55.6 1057.56 55.4867 1057.98 55.26C1058.4 55.02 1058.76 54.64 1059.04 54.12L1061.46 55.44C1061.06 56.3067 1060.44 56.98 1059.6 57.46C1058.76 57.9267 1057.77 58.16 1056.64 58.16ZM1065.63 58V49.08L1066.33 49.8H1061.99V47.24H1072.37V49.8H1068.03L1068.73 49.08V58H1065.63ZM1074.03 58V47.24H1077.13V53.64L1082.37 47.24H1085.23V58H1082.13V51.6L1076.91 58H1074.03ZM1095.85 58L1092.25 52.9L1094.79 51.4L1099.53 58H1095.85ZM1088.23 58V47.24H1091.35V58H1088.23ZM1090.43 53.92V51.42H1094.19V53.92H1090.43ZM1095.09 52.98L1092.17 52.66L1095.95 47.24H1099.27L1095.09 52.98Z" fill="url(#paint0_linear_405_1750)"/>
<path d="M677.252 44.7313H660.219V27.6983C660.219 26.7493 659.47 26 658.52 26H649.43C648.481 26 647.731 26.7493 647.731 27.6983V44.7313H630.698C629.749 44.7313 629 45.4805 629 46.4296V55.5704C629 56.5195 629.749 57.2687 630.698 57.2687H647.731V74.3017C647.731 75.2507 648.481 76 649.43 76H658.57C659.519 76 660.269 75.2507 660.269 74.3017V57.2188H677.302C678.251 57.2188 679 56.4695 679 55.5205V46.4296C678.95 45.4805 678.201 44.7313 677.252 44.7313Z" fill="url(#paint1_linear_405_1750)"/>
<rect y="1" width="1720" height="100" rx="10" stroke="url(#paint2_linear_405_1750)" stroke-linecap="round" stroke-linejoin="round" stroke-dasharray="10 10"/>
<defs>
<linearGradient id="paint0_linear_405_1750" x1="704" y1="59" x2="983" y2="-129.851" gradientUnits="userSpaceOnUse">
<stop stop-color="#53CDEF"/>
<stop offset="1" stop-color="#467CD7"/>
</linearGradient>
<linearGradient id="paint1_linear_405_1750" x1="629" y1="76" x2="680.329" y2="74.5962" gradientUnits="userSpaceOnUse">
<stop stop-color="#53CDEF"/>
<stop offset="0.911458" stop-color="#467CD7"/>
</linearGradient>
<linearGradient id="paint2_linear_405_1750" x1="6.4075e-06" y1="101" x2="1446.88" y2="-579.611" gradientUnits="userSpaceOnUse">
<stop stop-color="#53CDEF"/>
<stop offset="1" stop-color="#467CD7"/>
</linearGradient>
</defs>
</svg>
