<svg width="612" height="787" viewBox="0 0 612 787" fill="none" xmlns="http://www.w3.org/2000/svg">
<path opacity="0.5" d="M142.864 507.768L144.664 503.592C145.744 504.24 146.896 504.744 148.12 505.104C149.368 505.44 150.58 505.632 151.756 505.68C152.956 505.704 154.036 505.584 154.996 505.32C155.98 505.056 156.76 504.66 157.336 504.132C157.936 503.604 158.236 502.932 158.236 502.116C158.236 501.156 157.84 500.448 157.048 499.992C156.256 499.512 155.2 499.272 153.88 499.272H147.724V494.88H153.448C154.624 494.88 155.536 494.64 156.184 494.16C156.856 493.68 157.192 493.02 157.192 492.18C157.192 491.46 156.952 490.884 156.472 490.452C155.992 489.996 155.332 489.66 154.492 489.444C153.676 489.228 152.752 489.132 151.72 489.156C150.688 489.18 149.62 489.348 148.516 489.66C147.412 489.972 146.356 490.404 145.348 490.956L143.584 486.456C145.216 485.616 146.932 485.04 148.732 484.728C150.556 484.392 152.308 484.308 153.988 484.476C155.692 484.62 157.228 485.004 158.596 485.628C159.964 486.228 161.056 487.02 161.872 488.004C162.688 488.988 163.096 490.152 163.096 491.496C163.096 492.696 162.784 493.764 162.16 494.7C161.536 495.636 160.66 496.356 159.532 496.86C158.428 497.364 157.156 497.616 155.716 497.616L155.86 496.32C157.54 496.32 158.992 496.608 160.216 497.184C161.464 497.736 162.424 498.516 163.096 499.524C163.792 500.508 164.14 501.648 164.14 502.944C164.14 504.144 163.816 505.224 163.168 506.184C162.544 507.12 161.68 507.912 160.576 508.56C159.472 509.208 158.212 509.688 156.796 510C155.38 510.312 153.868 510.444 152.26 510.396C150.676 510.348 149.08 510.12 147.472 509.712C145.864 509.28 144.328 508.632 142.864 507.768ZM179.917 510V506.22L179.557 505.392V498.624C179.557 497.424 179.185 496.488 178.441 495.816C177.721 495.144 176.605 494.808 175.093 494.808C174.061 494.808 173.041 494.976 172.033 495.312C171.049 495.624 170.209 496.056 169.513 496.608L167.497 492.684C168.553 491.94 169.825 491.364 171.313 490.956C172.801 490.548 174.313 490.344 175.849 490.344C178.801 490.344 181.093 491.04 182.725 492.432C184.357 493.824 185.173 495.996 185.173 498.948V510H179.917ZM174.013 510.288C172.501 510.288 171.205 510.036 170.125 509.532C169.045 509.004 168.217 508.296 167.641 507.408C167.065 506.52 166.777 505.524 166.777 504.42C166.777 503.268 167.053 502.26 167.605 501.396C168.181 500.532 169.081 499.86 170.305 499.38C171.529 498.876 173.125 498.624 175.093 498.624H180.241V501.9H175.705C174.385 501.9 173.473 502.116 172.969 502.548C172.489 502.98 172.249 503.52 172.249 504.168C172.249 504.888 172.525 505.464 173.077 505.896C173.653 506.304 174.433 506.508 175.417 506.508C176.353 506.508 177.193 506.292 177.937 505.86C178.681 505.404 179.221 504.744 179.557 503.88L180.421 506.472C180.013 507.72 179.269 508.668 178.189 509.316C177.109 509.964 175.717 510.288 174.013 510.288ZM190.052 510V490.632H205.568V495.24H194.372L195.632 494.016V510H190.052ZM219.956 510.288C218.324 510.288 216.896 509.928 215.672 509.208C214.448 508.488 213.488 507.396 212.792 505.932C212.12 504.444 211.784 502.572 211.784 500.316C211.784 498.036 212.108 496.164 212.756 494.7C213.404 493.236 214.34 492.144 215.564 491.424C216.788 490.704 218.252 490.344 219.956 490.344C221.78 490.344 223.412 490.764 224.852 491.604C226.316 492.42 227.468 493.572 228.308 495.06C229.172 496.548 229.604 498.3 229.604 500.316C229.604 502.356 229.172 504.12 228.308 505.608C227.468 507.096 226.316 508.248 224.852 509.064C223.412 509.88 221.78 510.288 219.956 510.288ZM208.508 516.984V490.632H213.872V494.592L213.764 500.352L214.124 506.076V516.984H208.508ZM218.984 505.68C219.92 505.68 220.748 505.464 221.468 505.032C222.212 504.6 222.8 503.988 223.232 503.196C223.688 502.38 223.916 501.42 223.916 500.316C223.916 499.188 223.688 498.228 223.232 497.436C222.8 496.644 222.212 496.032 221.468 495.6C220.748 495.168 219.92 494.952 218.984 494.952C218.048 494.952 217.208 495.168 216.464 495.6C215.72 496.032 215.132 496.644 214.7 497.436C214.268 498.228 214.052 499.188 214.052 500.316C214.052 501.42 214.268 502.38 214.7 503.196C215.132 503.988 215.72 504.6 216.464 505.032C217.208 505.464 218.048 505.68 218.984 505.68ZM235.641 517.272C234.633 517.272 233.637 517.116 232.653 516.804C231.669 516.492 230.865 516.06 230.24 515.508L232.293 511.512C232.725 511.896 233.217 512.196 233.769 512.412C234.345 512.628 234.909 512.736 235.461 512.736C236.253 512.736 236.877 512.544 237.333 512.16C237.813 511.8 238.245 511.188 238.629 510.324L239.637 507.948L240.069 507.336L247.017 490.632H252.417L243.669 511.188C243.045 512.748 242.325 513.972 241.509 514.86C240.717 515.748 239.829 516.372 238.845 516.732C237.885 517.092 236.817 517.272 235.641 517.272ZM238.953 510.756L230.312 490.632H236.109L242.805 506.832L238.953 510.756ZM261.256 510.36C263.08 510.36 264.712 510.12 266.152 509.64C267.616 509.136 268.768 508.428 269.608 507.516C270.472 506.58 270.904 505.488 270.904 504.24C270.904 502.776 270.292 501.624 269.068 500.784C267.844 499.92 266.164 499.488 264.028 499.488L263.884 500.604C265.108 500.604 266.212 500.4 267.196 499.992C268.18 499.56 268.948 498.972 269.5 498.228C270.076 497.484 270.364 496.644 270.364 495.708C270.364 494.532 269.944 493.536 269.104 492.72C268.288 491.904 267.16 491.28 265.72 490.848C264.28 490.416 262.66 490.224 260.86 490.272C259.636 490.296 258.4 490.464 257.152 490.776C255.904 491.088 254.644 491.508 253.372 492.036L254.74 495.924C255.82 495.492 256.876 495.168 257.908 494.952C258.94 494.712 259.936 494.592 260.896 494.592C261.736 494.592 262.432 494.676 262.984 494.844C263.536 494.988 263.956 495.204 264.244 495.492C264.532 495.78 264.676 496.128 264.676 496.536C264.676 496.92 264.556 497.256 264.316 497.544C264.1 497.808 263.764 498.012 263.308 498.156C262.852 498.3 262.3 498.372 261.652 498.372H258.16V501.864H262.12C263.128 501.864 263.896 502.032 264.424 502.368C264.952 502.68 265.216 503.148 265.216 503.772C265.216 504.252 265.048 504.66 264.712 504.996C264.376 505.332 263.884 505.596 263.236 505.788C262.612 505.956 261.868 506.04 261.004 506.04C259.804 506.04 258.616 505.92 257.44 505.68C256.288 505.416 255.22 505.044 254.236 504.564L252.724 508.488C253.972 509.112 255.328 509.58 256.792 509.892C258.28 510.204 259.768 510.36 261.256 510.36ZM274.919 510V490.632H280.499V502.152L289.931 490.632H295.079V510H289.499V498.48L280.103 510H274.919ZM304.617 510V493.944L305.877 495.24H298.065V490.632H316.749V495.24H308.937L310.197 493.944V510H304.617ZM330.219 496.824C332.763 496.848 334.695 497.424 336.015 498.552C337.359 499.656 338.031 501.228 338.031 503.268C338.031 505.404 337.275 507.072 335.763 508.272C334.251 509.448 332.151 510.036 329.463 510.036L319.743 510V490.632H325.323V496.824H330.219ZM328.959 506.04C330.039 506.064 330.867 505.836 331.443 505.356C332.019 504.876 332.307 504.156 332.307 503.196C332.307 502.236 332.019 501.552 331.443 501.144C330.867 500.712 330.039 500.484 328.959 500.46L325.323 500.424V506.04H328.959ZM364.767 510.432C364.719 510.432 364.587 510.432 364.371 510.432C364.155 510.432 363.951 510.432 363.759 510.432C363.567 510.432 363.435 510.432 363.363 510.432C359.163 510.36 355.911 509.46 353.607 507.732C351.303 506.004 350.151 503.508 350.151 500.244C350.151 497.028 351.291 494.58 353.571 492.9C355.875 491.196 359.175 490.332 363.471 490.308C363.519 490.308 363.639 490.308 363.831 490.308C364.047 490.308 364.251 490.308 364.443 490.308C364.635 490.308 364.755 490.308 364.803 490.308C369.147 490.308 372.507 491.148 374.883 492.828C377.283 494.508 378.483 496.98 378.483 500.244C378.483 503.556 377.283 506.088 374.883 507.84C372.507 509.568 369.135 510.432 364.767 510.432ZM364.587 506.112C366.579 506.112 368.199 505.908 369.447 505.5C370.695 505.068 371.607 504.42 372.183 503.556C372.783 502.668 373.083 501.564 373.083 500.244C373.083 498.972 372.795 497.928 372.219 497.112C371.643 496.272 370.719 495.648 369.447 495.24C368.199 494.832 366.579 494.628 364.587 494.628C364.515 494.628 364.371 494.628 364.155 494.628C363.939 494.628 363.795 494.628 363.723 494.628C361.803 494.628 360.243 494.844 359.043 495.276C357.843 495.708 356.967 496.332 356.415 497.148C355.863 497.964 355.587 498.996 355.587 500.244C355.587 501.54 355.863 502.62 356.415 503.484C356.967 504.348 357.843 504.996 359.043 505.428C360.243 505.86 361.803 506.088 363.723 506.112C363.795 506.112 363.939 506.112 364.155 506.112C364.371 506.112 364.515 506.112 364.587 506.112ZM361.743 516.984V483.288H366.891V516.984H361.743ZM391.358 510.288C389.294 510.288 387.458 509.856 385.85 508.992C384.266 508.128 383.006 506.952 382.07 505.464C381.158 503.952 380.702 502.236 380.702 500.316C380.702 498.372 381.158 496.656 382.07 495.168C383.006 493.656 384.266 492.48 385.85 491.64C387.458 490.776 389.294 490.344 391.358 490.344C393.398 490.344 395.222 490.776 396.83 491.64C398.438 492.48 399.698 493.644 400.61 495.132C401.522 496.62 401.978 498.348 401.978 500.316C401.978 502.236 401.522 503.952 400.61 505.464C399.698 506.952 398.438 508.128 396.83 508.992C395.222 509.856 393.398 510.288 391.358 510.288ZM391.358 505.68C392.294 505.68 393.134 505.464 393.878 505.032C394.622 504.6 395.21 503.988 395.642 503.196C396.074 502.38 396.29 501.42 396.29 500.316C396.29 499.188 396.074 498.228 395.642 497.436C395.21 496.644 394.622 496.032 393.878 495.6C393.134 495.168 392.294 494.952 391.358 494.952C390.422 494.952 389.582 495.168 388.838 495.6C388.094 496.032 387.494 496.644 387.038 497.436C386.606 498.228 386.39 499.188 386.39 500.316C386.39 501.42 386.606 502.38 387.038 503.196C387.494 503.988 388.094 504.6 388.838 505.032C389.582 505.464 390.422 505.68 391.358 505.68ZM409.278 510V493.944L410.538 495.24H402.726V490.632H421.41V495.24H413.598L414.858 493.944V510H409.278ZM432.667 510.288C430.603 510.288 428.767 509.856 427.159 508.992C425.575 508.128 424.315 506.952 423.379 505.464C422.467 503.952 422.011 502.236 422.011 500.316C422.011 498.372 422.467 496.656 423.379 495.168C424.315 493.656 425.575 492.48 427.159 491.64C428.767 490.776 430.603 490.344 432.667 490.344C434.707 490.344 436.531 490.776 438.139 491.64C439.747 492.48 441.007 493.644 441.919 495.132C442.831 496.62 443.287 498.348 443.287 500.316C443.287 502.236 442.831 503.952 441.919 505.464C441.007 506.952 439.747 508.128 438.139 508.992C436.531 509.856 434.707 510.288 432.667 510.288ZM432.667 505.68C433.603 505.68 434.443 505.464 435.187 505.032C435.931 504.6 436.519 503.988 436.951 503.196C437.383 502.38 437.599 501.42 437.599 500.316C437.599 499.188 437.383 498.228 436.951 497.436C436.519 496.644 435.931 496.032 435.187 495.6C434.443 495.168 433.603 494.952 432.667 494.952C431.731 494.952 430.891 495.168 430.147 495.6C429.403 496.032 428.803 496.644 428.347 497.436C427.915 498.228 427.699 499.188 427.699 500.316C427.699 501.42 427.915 502.38 428.347 503.196C428.803 503.988 429.403 504.6 430.147 505.032C430.891 505.464 431.731 505.68 432.667 505.68ZM448.954 510.288C447.994 510.288 447.166 509.964 446.47 509.316C445.798 508.644 445.462 507.792 445.462 506.76C445.462 505.728 445.798 504.9 446.47 504.276C447.166 503.628 447.994 503.304 448.954 503.304C449.938 503.304 450.766 503.628 451.438 504.276C452.11 504.9 452.446 505.728 452.446 506.76C452.446 507.792 452.11 508.644 451.438 509.316C450.766 509.964 449.938 510.288 448.954 510.288ZM458.376 510.288C457.416 510.288 456.588 509.964 455.892 509.316C455.22 508.644 454.884 507.792 454.884 506.76C454.884 505.728 455.22 504.9 455.892 504.276C456.588 503.628 457.416 503.304 458.376 503.304C459.36 503.304 460.188 503.628 460.86 504.276C461.532 504.9 461.868 505.728 461.868 506.76C461.868 507.792 461.532 508.644 460.86 509.316C460.188 509.964 459.36 510.288 458.376 510.288ZM467.798 510.288C466.838 510.288 466.01 509.964 465.314 509.316C464.642 508.644 464.306 507.792 464.306 506.76C464.306 505.728 464.642 504.9 465.314 504.276C466.01 503.628 466.838 503.304 467.798 503.304C468.782 503.304 469.61 503.628 470.282 504.276C470.954 504.9 471.29 505.728 471.29 506.76C471.29 507.792 470.954 508.644 470.282 509.316C469.61 509.964 468.782 510.288 467.798 510.288Z" fill="url(#paint0_linear_338_97)"/>
<g opacity="0.5">
<path fill-rule="evenodd" clip-rule="evenodd" d="M230.879 439H383.403H383.412C383.485 439 383.557 439 383.629 438.999C389.615 438.942 395.344 436.65 399.581 432.609C403.872 428.518 406.282 422.968 406.282 417.182V300.818C406.282 295.032 403.872 289.482 399.581 285.39C395.291 281.299 389.471 279 383.403 279H230.879C224.811 279 218.992 281.299 214.701 285.39C210.41 289.482 208 295.032 208 300.818V417.182C208 422.968 210.41 428.518 214.701 432.609C218.992 436.701 224.811 439 230.879 439ZM356.792 424.454H369.18L343.974 388.454C343.277 387.464 342.334 386.653 341.231 386.092C340.127 385.531 338.895 385.238 337.644 385.238C336.394 385.238 335.162 385.531 334.058 386.092C333.043 386.608 332.164 387.336 331.487 388.22L356.792 424.454ZM338.525 424.454H244.886L284.721 365.762C285.403 364.749 286.338 363.912 287.443 363.328C288.548 362.744 289.787 362.431 291.05 362.417C292.306 362.423 293.541 362.725 294.646 363.296C295.75 363.867 296.689 364.689 297.38 365.69L338.525 424.454ZM227.316 423.612C226.648 423.275 226.03 422.843 225.486 422.324C224.056 420.96 223.252 419.11 223.252 417.182V300.818C223.252 298.889 224.056 297.039 225.486 295.676C226.916 294.312 228.856 293.545 230.879 293.545H383.403C385.426 293.545 387.366 294.312 388.796 295.676C390.226 297.039 391.03 298.889 391.03 300.818V417.182C391.03 419.11 390.226 420.96 388.796 422.324C388.231 422.863 387.586 423.309 386.889 423.65L356.71 380.382C354.623 377.381 351.79 374.92 348.463 373.217C345.137 371.515 341.42 370.624 337.644 370.624C333.869 370.624 330.152 371.515 326.826 373.217C325.395 373.95 324.055 374.823 322.827 375.818L310.116 357.617C308.028 354.619 305.194 352.16 301.867 350.46C298.541 348.759 294.825 347.87 291.05 347.872C287.255 347.894 283.525 348.816 280.197 350.556C276.869 352.295 274.047 354.797 271.985 357.835L227.316 423.612ZM332.56 348.048C336.322 350.445 340.746 351.725 345.271 351.725C351.338 351.725 357.158 349.426 361.448 345.335C365.739 341.243 368.149 335.693 368.149 329.907C368.149 325.592 366.807 321.373 364.294 317.785C361.78 314.197 358.206 311.401 354.026 309.749C349.845 308.098 345.245 307.666 340.807 308.508C336.369 309.35 332.293 311.428 329.093 314.479C325.893 317.53 323.714 321.418 322.831 325.65C321.949 329.883 322.402 334.269 324.133 338.256C325.865 342.243 328.797 345.65 332.56 348.048ZM341.034 323.86C342.288 323.061 343.762 322.634 345.271 322.634C347.293 322.634 349.233 323.4 350.663 324.764C352.093 326.128 352.897 327.978 352.897 329.907C352.897 331.345 352.45 332.751 351.612 333.947C350.774 335.143 349.583 336.075 348.189 336.626C346.795 337.176 345.262 337.32 343.783 337.04C342.303 336.759 340.945 336.066 339.878 335.049C338.811 334.032 338.085 332.736 337.791 331.326C337.497 329.915 337.648 328.453 338.225 327.124C338.802 325.795 339.78 324.659 341.034 323.86Z" fill="url(#paint1_linear_338_97)"/>
</g>
<rect x="3" width="606" height="784" rx="20" stroke="url(#paint2_linear_338_97)" stroke-width="5" stroke-linecap="round" stroke-linejoin="round" stroke-dasharray="20 20"/>
<defs>
<linearGradient id="paint0_linear_338_97" x1="142" y1="505" x2="399.595" y2="359.258" gradientUnits="userSpaceOnUse">
<stop stop-color="#53CDEF"/>
<stop offset="1" stop-color="#467CD7"/>
</linearGradient>
<linearGradient id="paint1_linear_338_97" x1="208" y1="439" x2="411.471" y2="432.104" gradientUnits="userSpaceOnUse">
<stop stop-color="#53CDEF"/>
<stop offset="1" stop-color="#467CD7"/>
</linearGradient>
<linearGradient id="paint2_linear_338_97" x1="3" y1="784" x2="625.295" y2="770.845" gradientUnits="userSpaceOnUse">
<stop stop-color="#53CDEF"/>
<stop offset="1" stop-color="#467CD7"/>
</linearGradient>
</defs>
</svg>
