<svg width="1720" height="102" viewBox="0 0 1720 102" fill="none" xmlns="http://www.w3.org/2000/svg">
<path d="M767.02 56.56V46.64H762.22L762.16 48.68C762.12 49.5467 762.06 50.3667 761.98 51.14C761.913 51.9133 761.806 52.62 761.66 53.26C761.513 53.8867 761.32 54.42 761.08 54.86C760.853 55.3 760.566 55.6133 760.22 55.8L756.76 55.36C757.24 55.3733 757.633 55.2067 757.94 54.86C758.26 54.5133 758.513 54.0267 758.7 53.4C758.886 52.76 759.02 52.0133 759.1 51.16C759.193 50.3067 759.26 49.38 759.3 48.38L759.46 44H770.22V56.56H767.02ZM756.3 60.9L756.32 55.36H772.18V60.9H769.18V58H759.3V60.9H756.3ZM779.044 58.16C777.897 58.16 776.877 57.92 775.984 57.44C775.104 56.96 774.404 56.3067 773.884 55.48C773.377 54.64 773.124 53.6867 773.124 52.62C773.124 51.54 773.377 50.5867 773.884 49.76C774.404 48.92 775.104 48.2667 775.984 47.8C776.877 47.32 777.897 47.08 779.044 47.08C780.177 47.08 781.19 47.32 782.084 47.8C782.977 48.2667 783.677 48.9133 784.184 49.74C784.69 50.5667 784.944 51.5267 784.944 52.62C784.944 53.6867 784.69 54.64 784.184 55.48C783.677 56.3067 782.977 56.96 782.084 57.44C781.19 57.92 780.177 58.16 779.044 58.16ZM779.044 55.6C779.564 55.6 780.03 55.48 780.444 55.24C780.857 55 781.184 54.66 781.424 54.22C781.664 53.7667 781.784 53.2333 781.784 52.62C781.784 51.9933 781.664 51.46 781.424 51.02C781.184 50.58 780.857 50.24 780.444 50C780.03 49.76 779.564 49.64 779.044 49.64C778.524 49.64 778.057 49.76 777.644 50C777.23 50.24 776.897 50.58 776.644 51.02C776.404 51.46 776.284 51.9933 776.284 52.62C776.284 53.2333 776.404 53.7667 776.644 54.22C776.897 54.66 777.23 55 777.644 55.24C778.057 55.48 778.524 55.6 779.044 55.6ZM792.43 58.24C791.55 58.24 790.75 58.1133 790.03 57.86C789.31 57.5933 788.683 57.1867 788.15 56.64C787.63 56.08 787.223 55.3667 786.93 54.5C786.65 53.6333 786.51 52.6 786.51 51.4C786.51 50.5467 786.583 49.7667 786.73 49.06C786.876 48.3533 787.096 47.7133 787.39 47.14C787.683 46.5533 788.056 46.04 788.51 45.6C788.976 45.1467 789.516 44.7733 790.13 44.48C790.756 44.1733 791.463 43.94 792.25 43.78L797.37 42.76L797.79 45.44L793.27 46.34C793.003 46.3933 792.696 46.4667 792.35 46.56C792.016 46.64 791.676 46.7667 791.33 46.94C790.996 47.1133 790.683 47.36 790.39 47.68C790.11 47.9867 789.883 48.3933 789.71 48.9C789.536 49.3933 789.45 50.0067 789.45 50.74C789.45 50.9667 789.456 51.14 789.47 51.26C789.496 51.38 789.516 51.5067 789.53 51.64C789.556 51.7733 789.57 51.98 789.57 52.26L788.57 51.28C788.863 50.6533 789.236 50.12 789.69 49.68C790.156 49.24 790.69 48.9067 791.29 48.68C791.903 48.44 792.583 48.32 793.33 48.32C794.343 48.32 795.23 48.5267 795.99 48.94C796.763 49.34 797.363 49.9067 797.79 50.64C798.216 51.3733 798.43 52.2067 798.43 53.14C798.43 54.1533 798.176 55.0467 797.67 55.82C797.163 56.58 796.456 57.1733 795.55 57.6C794.656 58.0267 793.616 58.24 792.43 58.24ZM792.59 55.82C793.11 55.82 793.57 55.7067 793.97 55.48C794.37 55.24 794.676 54.9267 794.89 54.54C795.116 54.14 795.23 53.6933 795.23 53.2C795.23 52.72 795.116 52.2933 794.89 51.92C794.676 51.5467 794.37 51.2533 793.97 51.04C793.57 50.8267 793.103 50.72 792.57 50.72C792.05 50.72 791.583 50.8267 791.17 51.04C790.756 51.24 790.436 51.52 790.21 51.88C789.983 52.24 789.87 52.66 789.87 53.14C789.87 53.6333 789.983 54.0867 790.21 54.5C790.45 54.9 790.77 55.22 791.17 55.46C791.583 55.7 792.056 55.82 792.59 55.82ZM806.811 58V55.9L806.611 55.44V51.68C806.611 51.0133 806.404 50.4933 805.991 50.12C805.591 49.7467 804.971 49.56 804.131 49.56C803.558 49.56 802.991 49.6533 802.431 49.84C801.884 50.0133 801.418 50.2533 801.031 50.56L799.911 48.38C800.498 47.9667 801.204 47.6467 802.031 47.42C802.858 47.1933 803.698 47.08 804.551 47.08C806.191 47.08 807.464 47.4667 808.371 48.24C809.278 49.0133 809.731 50.22 809.731 51.86V58H806.811ZM803.531 58.16C802.691 58.16 801.971 58.02 801.371 57.74C800.771 57.4467 800.311 57.0533 799.991 56.56C799.671 56.0667 799.511 55.5133 799.511 54.9C799.511 54.26 799.664 53.7 799.971 53.22C800.291 52.74 800.791 52.3667 801.471 52.1C802.151 51.82 803.038 51.68 804.131 51.68H806.991V53.5H804.471C803.738 53.5 803.231 53.62 802.951 53.86C802.684 54.1 802.551 54.4 802.551 54.76C802.551 55.16 802.704 55.48 803.011 55.72C803.331 55.9467 803.764 56.06 804.311 56.06C804.831 56.06 805.298 55.94 805.711 55.7C806.124 55.4467 806.424 55.08 806.611 54.6L807.091 56.04C806.864 56.7333 806.451 57.26 805.851 57.62C805.251 57.98 804.478 58.16 803.531 58.16ZM812.441 58V47.24H817.941C819.288 47.24 820.341 47.4867 821.101 47.98C821.861 48.46 822.241 49.14 822.241 50.02C822.241 50.9 821.881 51.5933 821.161 52.1C820.454 52.5933 819.514 52.84 818.341 52.84L818.661 52.12C819.968 52.12 820.941 52.36 821.581 52.84C822.234 53.32 822.561 54.02 822.561 54.94C822.561 55.8867 822.201 56.6333 821.481 57.18C820.761 57.7267 819.661 58 818.181 58H812.441ZM815.301 55.88H817.921C818.494 55.88 818.921 55.7867 819.201 55.6C819.494 55.4 819.641 55.1 819.641 54.7C819.641 54.2867 819.508 53.9867 819.241 53.8C818.974 53.6 818.554 53.5 817.981 53.5H815.301V55.88ZM815.301 51.66H817.661C818.208 51.66 818.614 51.56 818.881 51.36C819.161 51.16 819.301 50.8733 819.301 50.5C819.301 50.1133 819.161 49.8267 818.881 49.64C818.614 49.4533 818.208 49.36 817.661 49.36H815.301V51.66ZM824.883 58V47.24H827.983V53.64L833.223 47.24H836.083V58H832.983V51.6L827.763 58H824.883ZM841.382 58V49.08L842.082 49.8H837.742V47.24H848.122V49.8H843.782L844.482 49.08V58H841.382ZM855.605 50.68C857.018 50.6933 858.092 51.0133 858.825 51.64C859.572 52.2533 859.945 53.1267 859.945 54.26C859.945 55.4467 859.525 56.3733 858.685 57.04C857.845 57.6933 856.678 58.02 855.185 58.02L849.785 58V47.24H852.885V50.68H855.605ZM854.905 55.8C855.505 55.8133 855.965 55.6867 856.285 55.42C856.605 55.1533 856.765 54.7533 856.765 54.22C856.765 53.6867 856.605 53.3067 856.285 53.08C855.965 52.84 855.505 52.7133 854.905 52.7L852.885 52.68V55.8H854.905ZM866.118 58L870.938 51.68L870.878 53.4L866.258 47.24H869.758L872.678 51.26L871.358 51.3L874.378 47.24H877.698L873.058 53.34V51.66L877.858 58H874.318L871.258 53.72L872.558 53.9L869.518 58H866.118ZM885.639 58V55.9L885.439 55.44V51.68C885.439 51.0133 885.232 50.4933 884.819 50.12C884.419 49.7467 883.799 49.56 882.959 49.56C882.386 49.56 881.819 49.6533 881.259 49.84C880.712 50.0133 880.246 50.2533 879.859 50.56L878.739 48.38C879.326 47.9667 880.032 47.6467 880.859 47.42C881.686 47.1933 882.526 47.08 883.379 47.08C885.019 47.08 886.292 47.4667 887.199 48.24C888.106 49.0133 888.559 50.22 888.559 51.86V58H885.639ZM882.359 58.16C881.519 58.16 880.799 58.02 880.199 57.74C879.599 57.4467 879.139 57.0533 878.819 56.56C878.499 56.0667 878.339 55.5133 878.339 54.9C878.339 54.26 878.492 53.7 878.799 53.22C879.119 52.74 879.619 52.3667 880.299 52.1C880.979 51.82 881.866 51.68 882.959 51.68H885.819V53.5H883.299C882.566 53.5 882.059 53.62 881.779 53.86C881.512 54.1 881.379 54.4 881.379 54.76C881.379 55.16 881.532 55.48 881.839 55.72C882.159 55.9467 882.592 56.06 883.139 56.06C883.659 56.06 884.126 55.94 884.539 55.7C884.952 55.4467 885.252 55.08 885.439 54.6L885.919 56.04C885.692 56.7333 885.279 57.26 884.679 57.62C884.079 57.98 883.306 58.16 882.359 58.16ZM897.609 58.16C896.703 58.16 895.909 57.96 895.229 57.56C894.549 57.16 894.016 56.5533 893.629 55.74C893.256 54.9133 893.069 53.8733 893.069 52.62C893.069 51.3533 893.249 50.3133 893.609 49.5C893.969 48.6867 894.489 48.08 895.169 47.68C895.849 47.28 896.663 47.08 897.609 47.08C898.623 47.08 899.529 47.3133 900.329 47.78C901.143 48.2333 901.783 48.8733 902.249 49.7C902.729 50.5267 902.969 51.5 902.969 52.62C902.969 53.7533 902.729 54.7333 902.249 55.56C901.783 56.3867 901.143 57.0267 900.329 57.48C899.529 57.9333 898.623 58.16 897.609 58.16ZM891.249 61.88V47.24H894.229V49.44L894.169 52.64L894.369 55.82V61.88H891.249ZM897.069 55.6C897.589 55.6 898.049 55.48 898.449 55.24C898.863 55 899.189 54.66 899.429 54.22C899.683 53.7667 899.809 53.2333 899.809 52.62C899.809 51.9933 899.683 51.46 899.429 51.02C899.189 50.58 898.863 50.24 898.449 50C898.049 49.76 897.589 49.64 897.069 49.64C896.549 49.64 896.083 49.76 895.669 50C895.256 50.24 894.929 50.58 894.689 51.02C894.449 51.46 894.329 51.9933 894.329 52.62C894.329 53.2333 894.449 53.7667 894.689 54.22C894.929 54.66 895.256 55 895.669 55.24C896.083 55.48 896.549 55.6 897.069 55.6ZM911.42 58V55.9L911.22 55.44V51.68C911.22 51.0133 911.014 50.4933 910.6 50.12C910.2 49.7467 909.58 49.56 908.74 49.56C908.167 49.56 907.6 49.6533 907.04 49.84C906.494 50.0133 906.027 50.2533 905.64 50.56L904.52 48.38C905.107 47.9667 905.814 47.6467 906.64 47.42C907.467 47.1933 908.307 47.08 909.16 47.08C910.8 47.08 912.074 47.4667 912.98 48.24C913.887 49.0133 914.34 50.22 914.34 51.86V58H911.42ZM908.14 58.16C907.3 58.16 906.58 58.02 905.98 57.74C905.38 57.4467 904.92 57.0533 904.6 56.56C904.28 56.0667 904.12 55.5133 904.12 54.9C904.12 54.26 904.274 53.7 904.58 53.22C904.9 52.74 905.4 52.3667 906.08 52.1C906.76 51.82 907.647 51.68 908.74 51.68H911.6V53.5H909.08C908.347 53.5 907.84 53.62 907.56 53.86C907.294 54.1 907.16 54.4 907.16 54.76C907.16 55.16 907.314 55.48 907.62 55.72C907.94 55.9467 908.374 56.06 908.92 56.06C909.44 56.06 909.907 55.94 910.32 55.7C910.734 55.4467 911.034 55.08 911.22 54.6L911.7 56.04C911.474 56.7333 911.06 57.26 910.46 57.62C909.86 57.98 909.087 58.16 908.14 58.16ZM924.671 58L921.071 52.9L923.611 51.4L928.351 58H924.671ZM917.051 58V47.24H920.171V58H917.051ZM919.251 53.92V51.42H923.011V53.92H919.251ZM923.911 52.98L920.991 52.66L924.771 47.24H928.091L923.911 52.98ZM932.085 58V49.08L932.785 49.8H928.445V47.24H938.825V49.8H934.485L935.185 49.08V58H932.085ZM945.299 58.16C944.072 58.16 942.992 57.92 942.059 57.44C941.139 56.96 940.425 56.3067 939.919 55.48C939.412 54.64 939.159 53.6867 939.159 52.62C939.159 51.54 939.405 50.5867 939.899 49.76C940.405 48.92 941.092 48.2667 941.959 47.8C942.825 47.32 943.805 47.08 944.899 47.08C945.952 47.08 946.899 47.3067 947.739 47.76C948.592 48.2 949.265 48.84 949.759 49.68C950.252 50.5067 950.499 51.5 950.499 52.66C950.499 52.78 950.492 52.92 950.479 53.08C950.465 53.2267 950.452 53.3667 950.439 53.5H941.699V51.68H948.799L947.599 52.22C947.599 51.66 947.485 51.1733 947.259 50.76C947.032 50.3467 946.719 50.0267 946.319 49.8C945.919 49.56 945.452 49.44 944.919 49.44C944.385 49.44 943.912 49.56 943.499 49.8C943.099 50.0267 942.785 50.3533 942.559 50.78C942.332 51.1933 942.219 51.6867 942.219 52.26V52.74C942.219 53.3267 942.345 53.8467 942.599 54.3C942.865 54.74 943.232 55.08 943.699 55.32C944.179 55.5467 944.739 55.66 945.379 55.66C945.952 55.66 946.452 55.5733 946.879 55.4C947.319 55.2267 947.719 54.9667 948.079 54.62L949.739 56.42C949.245 56.98 948.625 57.4133 947.879 57.72C947.132 58.0133 946.272 58.16 945.299 58.16ZM959.23 58.16C958.324 58.16 957.53 57.96 956.85 57.56C956.17 57.16 955.637 56.5533 955.25 55.74C954.877 54.9133 954.69 53.8733 954.69 52.62C954.69 51.3533 954.87 50.3133 955.23 49.5C955.59 48.6867 956.11 48.08 956.79 47.68C957.47 47.28 958.284 47.08 959.23 47.08C960.244 47.08 961.15 47.3133 961.95 47.78C962.764 48.2333 963.404 48.8733 963.87 49.7C964.35 50.5267 964.59 51.5 964.59 52.62C964.59 53.7533 964.35 54.7333 963.87 55.56C963.404 56.3867 962.764 57.0267 961.95 57.48C961.15 57.9333 960.244 58.16 959.23 58.16ZM952.87 61.88V47.24H955.85V49.44L955.79 52.64L955.99 55.82V61.88H952.87ZM958.69 55.6C959.21 55.6 959.67 55.48 960.07 55.24C960.484 55 960.81 54.66 961.05 54.22C961.304 53.7667 961.43 53.2333 961.43 52.62C961.43 51.9933 961.304 51.46 961.05 51.02C960.81 50.58 960.484 50.24 960.07 50C959.67 49.76 959.21 49.64 958.69 49.64C958.17 49.64 957.704 49.76 957.29 50C956.877 50.24 956.55 50.58 956.31 51.02C956.07 51.46 955.95 51.9933 955.95 52.62C955.95 53.2333 956.07 53.7667 956.31 54.22C956.55 54.66 956.877 55 957.29 55.24C957.704 55.48 958.17 55.6 958.69 55.6ZM966.777 58V47.24H969.877V53.64L975.117 47.24H977.977V58H974.877V51.6L969.657 58H966.777ZM986.096 58.16C984.936 58.16 983.903 57.9267 982.996 57.46C982.09 56.98 981.376 56.32 980.856 55.48C980.35 54.64 980.096 53.6867 980.096 52.62C980.096 51.54 980.35 50.5867 980.856 49.76C981.376 48.92 982.09 48.2667 982.996 47.8C983.903 47.32 984.936 47.08 986.096 47.08C987.23 47.08 988.216 47.32 989.056 47.8C989.896 48.2667 990.516 48.94 990.916 49.82L988.496 51.12C988.216 50.6133 987.863 50.24 987.436 50C987.023 49.76 986.57 49.64 986.076 49.64C985.543 49.64 985.063 49.76 984.636 50C984.21 50.24 983.87 50.58 983.616 51.02C983.376 51.46 983.256 51.9933 983.256 52.62C983.256 53.2467 983.376 53.78 983.616 54.22C983.87 54.66 984.21 55 984.636 55.24C985.063 55.48 985.543 55.6 986.076 55.6C986.57 55.6 987.023 55.4867 987.436 55.26C987.863 55.02 988.216 54.64 988.496 54.12L990.916 55.44C990.516 56.3067 989.896 56.98 989.056 57.46C988.216 57.9267 987.23 58.16 986.096 58.16ZM995.093 58V49.08L995.793 49.8H991.453V47.24H1001.83V49.8H997.493L998.193 49.08V58H995.093ZM1003.5 58V47.24H1006.6V53.64L1011.84 47.24H1014.7V58H1011.6V51.6L1006.38 58H1003.5ZM1025.32 58L1021.72 52.9L1024.26 51.4L1029 58H1025.32ZM1017.7 58V47.24H1020.82V58H1017.7ZM1019.9 53.92V51.42H1023.66V53.92H1019.9ZM1024.56 52.98L1021.64 52.66L1025.42 47.24H1028.74L1024.56 52.98ZM1031.38 62.04C1030.82 62.04 1030.27 61.9533 1029.72 61.78C1029.17 61.6067 1028.73 61.3667 1028.38 61.06L1029.52 58.84C1029.76 59.0533 1030.03 59.22 1030.34 59.34C1030.66 59.46 1030.97 59.52 1031.28 59.52C1031.72 59.52 1032.07 59.4133 1032.32 59.2C1032.59 59 1032.83 58.66 1033.04 58.18L1033.6 56.86L1033.84 56.52L1037.7 47.24H1040.7L1035.84 58.66C1035.49 59.5267 1035.09 60.2067 1034.64 60.7C1034.2 61.1933 1033.71 61.54 1033.16 61.74C1032.63 61.94 1032.03 62.04 1031.38 62.04ZM1033.22 58.42L1028.42 47.24H1031.64L1035.36 56.24L1033.22 58.42Z" fill="url(#paint0_linear_338_1744)"/>
<path d="M729.252 44.7313H712.219V27.6983C712.219 26.7493 711.47 26 710.52 26H701.43C700.481 26 699.731 26.7493 699.731 27.6983V44.7313H682.698C681.749 44.7313 681 45.4805 681 46.4296V55.5704C681 56.5195 681.749 57.2687 682.698 57.2687H699.731V74.3017C699.731 75.2507 700.481 76 701.43 76H710.57C711.519 76 712.269 75.2507 712.269 74.3017V57.2188H729.302C730.251 57.2188 731 56.4695 731 55.5205V46.4296C730.95 45.4805 730.201 44.7313 729.252 44.7313Z" fill="url(#paint1_linear_338_1744)"/>
<rect y="1" width="1720" height="100" rx="10" stroke="url(#paint2_linear_338_1744)" stroke-linecap="round" stroke-linejoin="round" stroke-dasharray="10 10"/>
<defs>
<linearGradient id="paint0_linear_338_1744" x1="756" y1="59" x2="992.637" y2="-56.2777" gradientUnits="userSpaceOnUse">
<stop stop-color="#53CDEF"/>
<stop offset="1" stop-color="#467CD7"/>
</linearGradient>
<linearGradient id="paint1_linear_338_1744" x1="681" y1="76" x2="732.329" y2="74.5962" gradientUnits="userSpaceOnUse">
<stop stop-color="#53CDEF"/>
<stop offset="0.911458" stop-color="#467CD7"/>
</linearGradient>
<linearGradient id="paint2_linear_338_1744" x1="6.4075e-06" y1="101" x2="1446.88" y2="-579.611" gradientUnits="userSpaceOnUse">
<stop stop-color="#53CDEF"/>
<stop offset="1" stop-color="#467CD7"/>
</linearGradient>
</defs>
</svg>
