<svg width="1720" height="753" viewBox="0 0 1720 753" fill="none" xmlns="http://www.w3.org/2000/svg">
<path d="M657 487.4L663 474.44L669 487.4H657ZM675.8 497.8C676.573 497.8 677.24 497.52 677.8 496.96C678.333 496.427 678.6 495.773 678.6 495V490.2C678.6 489.427 678.333 488.76 677.8 488.2C677.24 487.667 676.573 487.4 675.8 487.4H675.2L665.56 466.6C665.08 465.613 664.227 465.12 663 465.12C661.773 465.12 660.933 465.613 660.48 466.6L650.8 487.4H650.2C649.427 487.4 648.76 487.667 648.2 488.2C647.667 488.76 647.4 489.427 647.4 490.2V495C647.4 495.773 647.667 496.427 648.2 496.96C648.76 497.52 649.427 497.8 650.2 497.8C650.973 497.8 651.627 497.52 652.16 496.96C652.72 496.427 653 495.773 653 495V493H673V495C673 495.773 673.267 496.427 673.8 496.96C674.36 497.52 675.027 497.8 675.8 497.8ZM692.192 474.6C693.952 474.6 695.459 475.227 696.712 476.48C697.966 477.733 698.592 479.24 698.592 481C698.592 482.76 697.966 484.267 696.712 485.52C695.459 486.773 693.952 487.4 692.192 487.4C690.432 487.4 688.926 486.773 687.672 485.52C686.419 484.267 685.792 482.76 685.792 481C685.792 479.24 686.419 477.733 687.672 476.48C688.926 475.227 690.432 474.6 692.192 474.6ZM692.192 493C695.499 493 698.326 491.827 700.672 489.48C703.019 487.133 704.192 484.307 704.192 481C704.192 477.693 703.019 474.867 700.672 472.52C698.326 470.173 695.499 469 692.192 469C688.886 469 686.059 470.173 683.712 472.52C681.366 474.867 680.192 477.693 680.192 481C680.192 484.307 681.366 487.133 683.712 489.48C686.059 491.827 688.886 493 692.192 493ZM721.118 482.48C721.785 482.48 722.358 482.72 722.838 483.2C723.318 483.68 723.558 484.253 723.558 484.92C723.558 485.613 723.318 486.2 722.838 486.68C722.358 487.16 721.785 487.4 721.118 487.4H713.398V482.48H721.118ZM724.398 474.6C725.172 474.6 725.838 474.333 726.398 473.8C726.932 473.24 727.198 472.573 727.198 471.8C727.198 471.027 726.932 470.36 726.398 469.8C725.838 469.267 725.172 469 724.398 469H710.598C709.825 469 709.158 469.267 708.598 469.8C708.065 470.36 707.798 471.027 707.798 471.8V490.2C707.798 490.973 708.065 491.627 708.598 492.16C709.158 492.72 709.825 493 710.598 493H721.118C723.332 493 725.225 492.213 726.798 490.64C728.372 489.067 729.158 487.16 729.158 484.92C729.158 482.707 728.372 480.813 726.798 479.24C725.225 477.667 723.332 476.88 721.118 476.88H713.398V474.6H724.398ZM742.999 478.04L745.359 482.8H740.599L742.999 478.04ZM732.519 492.68C733.213 493.027 733.933 493.08 734.679 492.84C735.399 492.6 735.933 492.133 736.279 491.44L737.799 488.4H748.159L749.679 491.44C750.186 492.48 751.026 493 752.199 493C752.626 493 753.039 492.893 753.439 492.68C754.133 492.333 754.599 491.8 754.839 491.08C755.079 490.333 755.026 489.613 754.679 488.92L745.479 470.52C744.999 469.587 744.173 469.12 742.999 469.12C741.799 469.12 740.959 469.587 740.479 470.52L731.279 488.92C730.933 489.613 730.879 490.333 731.119 491.08C731.359 491.8 731.826 492.333 732.519 492.68ZM763.594 474.6H771.314C771.82 474.6 772.247 474.773 772.594 475.12C772.94 475.467 773.114 475.893 773.114 476.4C773.114 476.907 772.94 477.333 772.594 477.68C772.22 478.027 771.794 478.2 771.314 478.2H763.594V474.6ZM763.594 487.4V483.8H772.634C773.114 483.8 773.54 483.973 773.914 484.32C774.26 484.667 774.434 485.093 774.434 485.6C774.434 486.107 774.26 486.533 773.914 486.88C773.54 487.227 773.114 487.4 772.634 487.4H763.594ZM772.634 493C774.66 493 776.394 492.28 777.834 490.84C779.3 489.373 780.034 487.627 780.034 485.6C780.034 483.467 779.234 481.667 777.634 480.2C778.354 479 778.714 477.733 778.714 476.4C778.714 474.347 777.994 472.6 776.554 471.16C775.087 469.72 773.34 469 771.314 469H760.794C760.02 469 759.354 469.267 758.794 469.8C758.26 470.36 757.994 471.027 757.994 471.8V490.2C757.994 490.973 758.26 491.627 758.794 492.16C759.354 492.72 760.02 493 760.794 493H772.634ZM802.179 493C802.952 493 803.619 492.733 804.179 492.2C804.712 491.64 804.979 490.973 804.979 490.2V471.8C804.979 470.493 804.379 469.613 803.179 469.16C801.952 468.707 800.912 468.973 800.059 469.96L789.219 482.64V471.8C789.219 471.027 788.952 470.36 788.419 469.8C787.859 469.267 787.192 469 786.419 469C785.645 469 784.992 469.267 784.459 469.8C783.899 470.36 783.619 471.027 783.619 471.8V490.2C783.619 491.507 784.232 492.387 785.459 492.84C785.779 492.947 786.099 493 786.419 493C787.272 493 787.979 492.667 788.539 492L799.379 479.36V490.2C799.379 490.973 799.659 491.64 800.219 492.2C800.752 492.733 801.405 493 802.179 493ZM815.671 474.6V490.2C815.671 490.973 815.951 491.627 816.511 492.16C817.044 492.72 817.697 493 818.471 493C819.244 493 819.911 492.72 820.471 492.16C821.004 491.627 821.271 490.973 821.271 490.2V474.6H826.351C827.124 474.6 827.791 474.333 828.351 473.8C828.884 473.24 829.151 472.573 829.151 471.8C829.151 471.027 828.884 470.36 828.351 469.8C827.791 469.267 827.124 469 826.351 469H810.591C809.817 469 809.151 469.267 808.591 469.8C808.057 470.36 807.791 471.027 807.791 471.8C807.791 472.573 808.057 473.24 808.591 473.8C809.151 474.333 809.817 474.6 810.591 474.6H815.671ZM837.539 481.16H843.299C844.152 481.16 844.886 481.467 845.499 482.08C846.086 482.693 846.379 483.427 846.379 484.28C846.379 485.133 846.086 485.867 845.499 486.48C844.886 487.093 844.152 487.4 843.299 487.4H837.539V481.16ZM831.939 490.2C831.939 490.973 832.206 491.64 832.739 492.2C833.299 492.733 833.966 493 834.739 493H843.299C845.699 493 847.752 492.147 849.459 490.44C851.139 488.733 851.979 486.68 851.979 484.28C851.979 481.88 851.139 479.827 849.459 478.12C847.752 476.413 845.699 475.56 843.299 475.56H837.539V471.8C837.539 471.027 837.272 470.373 836.739 469.84C836.179 469.28 835.512 469 834.739 469C833.966 469 833.299 469.28 832.739 469.84C832.206 470.373 831.939 471.027 831.939 471.8V490.2ZM880.356 474.6C882.116 474.6 883.623 475.227 884.876 476.48C886.13 477.733 886.756 479.24 886.756 481C886.756 482.76 886.13 484.267 884.876 485.52C883.623 486.773 882.116 487.4 880.356 487.4C878.596 487.4 877.09 486.773 875.836 485.52C874.583 484.267 873.956 482.76 873.956 481C873.956 479.24 874.583 477.733 875.836 476.48C877.09 475.227 878.596 474.6 880.356 474.6ZM880.356 493C883.663 493 886.49 491.827 888.836 489.48C891.183 487.133 892.356 484.307 892.356 481C892.356 477.693 891.183 474.867 888.836 472.52C886.49 470.173 883.663 469 880.356 469C877.05 469 874.223 470.173 871.876 472.52C869.53 474.867 868.356 477.693 868.356 481C868.356 484.307 869.53 487.133 871.876 489.48C874.223 491.827 877.05 493 880.356 493ZM914.523 493C915.296 493 915.963 492.733 916.523 492.2C917.056 491.64 917.323 490.973 917.323 490.2V471.8C917.323 471.027 917.056 470.36 916.523 469.8C915.963 469.267 915.296 469 914.523 469H898.763C897.989 469 897.336 469.267 896.803 469.8C896.243 470.36 895.963 471.027 895.963 471.8V490.2C895.963 490.973 896.243 491.64 896.803 492.2C897.336 492.733 897.989 493 898.763 493C899.536 493 900.203 492.733 900.763 492.2C901.296 491.64 901.563 490.973 901.563 490.2V474.6H911.723V490.2C911.723 490.973 912.003 491.64 912.563 492.2C913.096 492.733 913.749 493 914.523 493ZM940.694 493C941.468 493 942.134 492.733 942.694 492.2C943.228 491.64 943.494 490.973 943.494 490.2V471.8C943.494 470.493 942.894 469.613 941.694 469.16C940.468 468.707 939.428 468.973 938.574 469.96L927.734 482.64V471.8C927.734 471.027 927.468 470.36 926.934 469.8C926.374 469.267 925.708 469 924.934 469C924.161 469 923.508 469.267 922.974 469.8C922.414 470.36 922.134 471.027 922.134 471.8V490.2C922.134 491.507 922.748 492.387 923.974 492.84C924.294 492.947 924.614 493 924.934 493C925.788 493 926.494 492.667 927.054 492L937.894 479.36V490.2C937.894 490.973 938.174 491.64 938.734 492.2C939.268 492.733 939.921 493 940.694 493ZM959.106 493C963 493 966.146 491.467 968.546 488.4C969.026 487.787 969.213 487.107 969.106 486.36C969.026 485.587 968.68 484.96 968.066 484.48C967.453 484 966.76 483.813 965.986 483.92C965.213 484 964.6 484.347 964.146 484.96C962.866 486.587 961.186 487.4 959.106 487.4C957.346 487.4 955.84 486.773 954.586 485.52C953.333 484.267 952.706 482.76 952.706 481C952.706 479.24 953.333 477.733 954.586 476.48C955.84 475.227 957.346 474.6 959.106 474.6C961.186 474.6 962.866 475.413 964.146 477.04C964.6 477.653 965.213 478 965.986 478.08C966.76 478.187 967.453 478 968.066 477.52C968.68 477.04 969.026 476.413 969.106 475.64C969.213 474.893 969.026 474.213 968.546 473.6C966.146 470.533 963 469 959.106 469C955.8 469 952.973 470.173 950.626 472.52C948.28 474.867 947.106 477.693 947.106 481C947.106 484.307 948.28 487.133 950.626 489.48C952.973 491.827 955.8 493 959.106 493ZM982.687 478.04L985.047 482.8H980.287L982.687 478.04ZM972.207 492.68C972.9 493.027 973.62 493.08 974.367 492.84C975.087 492.6 975.62 492.133 975.967 491.44L977.487 488.4H987.847L989.367 491.44C989.874 492.48 990.714 493 991.887 493C992.314 493 992.727 492.893 993.127 492.68C993.82 492.333 994.287 491.8 994.527 491.08C994.767 490.333 994.714 489.613 994.367 488.92L985.167 470.52C984.687 469.587 983.86 469.12 982.687 469.12C981.487 469.12 980.647 469.587 980.167 470.52L970.967 488.92C970.62 489.613 970.567 490.333 970.807 491.08C971.047 491.8 971.514 492.333 972.207 492.68ZM1000.48 493C1001.25 493 1001.92 492.733 1002.48 492.2C1003.01 491.64 1003.28 490.973 1003.28 490.2V483.8H1013.44V490.2C1013.44 490.973 1013.72 491.64 1014.28 492.2C1014.81 492.733 1015.47 493 1016.24 493C1017.01 493 1017.68 492.733 1018.24 492.2C1018.77 491.64 1019.04 490.973 1019.04 490.2V471.8C1019.04 471.027 1018.77 470.36 1018.24 469.8C1017.68 469.267 1017.01 469 1016.24 469C1015.47 469 1014.81 469.267 1014.28 469.8C1013.72 470.36 1013.44 471.027 1013.44 471.8V478.2H1003.28V471.8C1003.28 471.027 1003.01 470.36 1002.48 469.8C1001.92 469.267 1001.25 469 1000.48 469C999.708 469 999.041 469.267 998.481 469.8C997.948 470.36 997.681 471.027 997.681 471.8V490.2C997.681 490.973 997.948 491.64 998.481 492.2C999.041 492.733 999.708 493 1000.48 493ZM1042.41 493C1043.19 493 1043.85 492.733 1044.41 492.2C1044.95 491.64 1045.21 490.973 1045.21 490.2V471.8C1045.21 470.493 1044.61 469.613 1043.41 469.16C1042.19 468.707 1041.15 468.973 1040.29 469.96L1029.45 482.64V471.8C1029.45 471.027 1029.19 470.36 1028.65 469.8C1028.09 469.267 1027.43 469 1026.65 469C1025.88 469 1025.23 469.267 1024.69 469.8C1024.13 470.36 1023.85 471.027 1023.85 471.8V490.2C1023.85 491.507 1024.47 492.387 1025.69 492.84C1026.01 492.947 1026.33 493 1026.65 493C1027.51 493 1028.21 492.667 1028.77 492L1039.61 479.36V490.2C1039.61 490.973 1039.89 491.64 1040.45 492.2C1040.99 492.733 1041.64 493 1042.41 493ZM1068.59 493C1069.36 493 1070.03 492.733 1070.59 492.2C1071.12 491.64 1071.39 490.973 1071.39 490.2C1071.39 489.427 1071.12 488.76 1070.59 488.2C1070.03 487.667 1069.36 487.4 1068.59 487.4H1055.63V483.8H1067.27C1068.04 483.8 1068.71 483.533 1069.27 483C1069.8 482.44 1070.07 481.773 1070.07 481C1070.07 480.227 1069.8 479.56 1069.27 479C1068.71 478.467 1068.04 478.2 1067.27 478.2H1055.63V474.6H1068.59C1069.36 474.6 1070.03 474.333 1070.59 473.8C1071.12 473.24 1071.39 472.573 1071.39 471.8C1071.39 471.027 1071.12 470.36 1070.59 469.8C1070.03 469.267 1069.36 469 1068.59 469H1052.83C1052.05 469 1051.39 469.267 1050.83 469.8C1050.29 470.36 1050.03 471.027 1050.03 471.8V490.2C1050.03 490.973 1050.29 491.64 1050.83 492.2C1051.39 492.733 1052.05 493 1052.83 493H1068.59Z" fill="url(#paint0_linear_82_1550)"/>
<path d="M929.755 323.194H878.656V272.095C878.656 269.248 876.409 267 873.561 267H846.289C843.442 267 841.194 269.248 841.194 272.095V323.194H790.095C787.248 323.194 785 325.442 785 328.289V355.711C785 358.558 787.248 360.806 790.095 360.806H841.194V411.905C841.194 414.752 843.442 417 846.289 417H873.711C876.558 417 878.806 414.752 878.806 411.905V360.656H929.905C932.752 360.656 935 358.409 935 355.561V328.289C934.85 325.442 932.602 323.194 929.755 323.194Z" fill="url(#paint1_linear_82_1550)"/>
<rect y="3" width="1720" height="750" rx="20" stroke="url(#paint2_linear_82_1550)" stroke-width="5" stroke-linecap="round" stroke-dasharray="50 50"/>
<defs>
<linearGradient id="paint0_linear_82_1550" x1="647" y1="498" x2="1050.43" y2="380.496" gradientUnits="userSpaceOnUse">
<stop stop-color="#53CDEF"/>
<stop offset="1" stop-color="#467CD7"/>
</linearGradient>
<linearGradient id="paint1_linear_82_1550" x1="785" y1="417" x2="938.987" y2="412.789" gradientUnits="userSpaceOnUse">
<stop stop-color="#53CDEF"/>
<stop offset="0.911458" stop-color="#467CD7"/>
</linearGradient>
<linearGradient id="paint2_linear_82_1550" x1="6.4075e-06" y1="753" x2="1760.12" y2="642.606" gradientUnits="userSpaceOnUse">
<stop stop-color="#53CDEF"/>
<stop offset="1" stop-color="#467CD7"/>
</linearGradient>
</defs>
</svg>
