<svg width="1720" height="102" viewBox="0 0 1720 102" fill="none" xmlns="http://www.w3.org/2000/svg">
<path d="M818.02 56.56V46.64H813.22L813.16 48.68C813.12 49.5467 813.06 50.3667 812.98 51.14C812.913 51.9133 812.806 52.62 812.66 53.26C812.513 53.8867 812.32 54.42 812.08 54.86C811.853 55.3 811.566 55.6133 811.22 55.8L807.76 55.36C808.24 55.3733 808.633 55.2067 808.94 54.86C809.26 54.5133 809.513 54.0267 809.7 53.4C809.886 52.76 810.02 52.0133 810.1 51.16C810.193 50.3067 810.26 49.38 810.3 48.38L810.46 44H821.22V56.56H818.02ZM807.3 60.9L807.32 55.36H823.18V60.9H820.18V58H810.3V60.9H807.3ZM830.044 58.16C828.897 58.16 827.877 57.92 826.984 57.44C826.104 56.96 825.404 56.3067 824.884 55.48C824.377 54.64 824.124 53.6867 824.124 52.62C824.124 51.54 824.377 50.5867 824.884 49.76C825.404 48.92 826.104 48.2667 826.984 47.8C827.877 47.32 828.897 47.08 830.044 47.08C831.177 47.08 832.19 47.32 833.084 47.8C833.977 48.2667 834.677 48.9133 835.184 49.74C835.69 50.5667 835.944 51.5267 835.944 52.62C835.944 53.6867 835.69 54.64 835.184 55.48C834.677 56.3067 833.977 56.96 833.084 57.44C832.19 57.92 831.177 58.16 830.044 58.16ZM830.044 55.6C830.564 55.6 831.03 55.48 831.444 55.24C831.857 55 832.184 54.66 832.424 54.22C832.664 53.7667 832.784 53.2333 832.784 52.62C832.784 51.9933 832.664 51.46 832.424 51.02C832.184 50.58 831.857 50.24 831.444 50C831.03 49.76 830.564 49.64 830.044 49.64C829.524 49.64 829.057 49.76 828.644 50C828.23 50.24 827.897 50.58 827.644 51.02C827.404 51.46 827.284 51.9933 827.284 52.62C827.284 53.2333 827.404 53.7667 827.644 54.22C827.897 54.66 828.23 55 828.644 55.24C829.057 55.48 829.524 55.6 830.044 55.6ZM843.43 58.24C842.55 58.24 841.75 58.1133 841.03 57.86C840.31 57.5933 839.683 57.1867 839.15 56.64C838.63 56.08 838.223 55.3667 837.93 54.5C837.65 53.6333 837.51 52.6 837.51 51.4C837.51 50.5467 837.583 49.7667 837.73 49.06C837.876 48.3533 838.096 47.7133 838.39 47.14C838.683 46.5533 839.056 46.04 839.51 45.6C839.976 45.1467 840.516 44.7733 841.13 44.48C841.756 44.1733 842.463 43.94 843.25 43.78L848.37 42.76L848.79 45.44L844.27 46.34C844.003 46.3933 843.696 46.4667 843.35 46.56C843.016 46.64 842.676 46.7667 842.33 46.94C841.996 47.1133 841.683 47.36 841.39 47.68C841.11 47.9867 840.883 48.3933 840.71 48.9C840.536 49.3933 840.45 50.0067 840.45 50.74C840.45 50.9667 840.456 51.14 840.47 51.26C840.496 51.38 840.516 51.5067 840.53 51.64C840.556 51.7733 840.57 51.98 840.57 52.26L839.57 51.28C839.863 50.6533 840.236 50.12 840.69 49.68C841.156 49.24 841.69 48.9067 842.29 48.68C842.903 48.44 843.583 48.32 844.33 48.32C845.343 48.32 846.23 48.5267 846.99 48.94C847.763 49.34 848.363 49.9067 848.79 50.64C849.216 51.3733 849.43 52.2067 849.43 53.14C849.43 54.1533 849.176 55.0467 848.67 55.82C848.163 56.58 847.456 57.1733 846.55 57.6C845.656 58.0267 844.616 58.24 843.43 58.24ZM843.59 55.82C844.11 55.82 844.57 55.7067 844.97 55.48C845.37 55.24 845.676 54.9267 845.89 54.54C846.116 54.14 846.23 53.6933 846.23 53.2C846.23 52.72 846.116 52.2933 845.89 51.92C845.676 51.5467 845.37 51.2533 844.97 51.04C844.57 50.8267 844.103 50.72 843.57 50.72C843.05 50.72 842.583 50.8267 842.17 51.04C841.756 51.24 841.436 51.52 841.21 51.88C840.983 52.24 840.87 52.66 840.87 53.14C840.87 53.6333 840.983 54.0867 841.21 54.5C841.45 54.9 841.77 55.22 842.17 55.46C842.583 55.7 843.056 55.82 843.59 55.82ZM857.811 58V55.9L857.611 55.44V51.68C857.611 51.0133 857.404 50.4933 856.991 50.12C856.591 49.7467 855.971 49.56 855.131 49.56C854.558 49.56 853.991 49.6533 853.431 49.84C852.884 50.0133 852.418 50.2533 852.031 50.56L850.911 48.38C851.498 47.9667 852.204 47.6467 853.031 47.42C853.858 47.1933 854.698 47.08 855.551 47.08C857.191 47.08 858.464 47.4667 859.371 48.24C860.278 49.0133 860.731 50.22 860.731 51.86V58H857.811ZM854.531 58.16C853.691 58.16 852.971 58.02 852.371 57.74C851.771 57.4467 851.311 57.0533 850.991 56.56C850.671 56.0667 850.511 55.5133 850.511 54.9C850.511 54.26 850.664 53.7 850.971 53.22C851.291 52.74 851.791 52.3667 852.471 52.1C853.151 51.82 854.038 51.68 855.131 51.68H857.991V53.5H855.471C854.738 53.5 854.231 53.62 853.951 53.86C853.684 54.1 853.551 54.4 853.551 54.76C853.551 55.16 853.704 55.48 854.011 55.72C854.331 55.9467 854.764 56.06 855.311 56.06C855.831 56.06 856.298 55.94 856.711 55.7C857.124 55.4467 857.424 55.08 857.611 54.6L858.091 56.04C857.864 56.7333 857.451 57.26 856.851 57.62C856.251 57.98 855.478 58.16 854.531 58.16ZM863.441 58V47.24H868.941C870.288 47.24 871.341 47.4867 872.101 47.98C872.861 48.46 873.241 49.14 873.241 50.02C873.241 50.9 872.881 51.5933 872.161 52.1C871.454 52.5933 870.514 52.84 869.341 52.84L869.661 52.12C870.968 52.12 871.941 52.36 872.581 52.84C873.234 53.32 873.561 54.02 873.561 54.94C873.561 55.8867 873.201 56.6333 872.481 57.18C871.761 57.7267 870.661 58 869.181 58H863.441ZM866.301 55.88H868.921C869.494 55.88 869.921 55.7867 870.201 55.6C870.494 55.4 870.641 55.1 870.641 54.7C870.641 54.2867 870.508 53.9867 870.241 53.8C869.974 53.6 869.554 53.5 868.981 53.5H866.301V55.88ZM866.301 51.66H868.661C869.208 51.66 869.614 51.56 869.881 51.36C870.161 51.16 870.301 50.8733 870.301 50.5C870.301 50.1133 870.161 49.8267 869.881 49.64C869.614 49.4533 869.208 49.36 868.661 49.36H866.301V51.66ZM875.883 58V47.24H878.983V53.64L884.223 47.24H887.083V58H883.983V51.6L878.763 58H875.883ZM892.382 58V49.08L893.082 49.8H888.742V47.24H899.122V49.8H894.782L895.482 49.08V58H892.382ZM906.605 50.68C908.018 50.6933 909.092 51.0133 909.825 51.64C910.572 52.2533 910.945 53.1267 910.945 54.26C910.945 55.4467 910.525 56.3733 909.685 57.04C908.845 57.6933 907.678 58.02 906.185 58.02L900.785 58V47.24H903.885V50.68H906.605ZM905.905 55.8C906.505 55.8133 906.965 55.6867 907.285 55.42C907.605 55.1533 907.765 54.7533 907.765 54.22C907.765 53.6867 907.605 53.3067 907.285 53.08C906.965 52.84 906.505 52.7133 905.905 52.7L903.885 52.68V55.8H905.905ZM920.018 62.04C919.458 62.04 918.905 61.9533 918.358 61.78C917.812 61.6067 917.365 61.3667 917.018 61.06L918.158 58.84C918.398 59.0533 918.672 59.22 918.978 59.34C919.298 59.46 919.612 59.52 919.918 59.52C920.358 59.52 920.705 59.4133 920.958 59.2C921.225 59 921.465 58.66 921.678 58.18L922.238 56.86L922.478 56.52L926.338 47.24H929.338L924.478 58.66C924.132 59.5267 923.732 60.2067 923.278 60.7C922.838 61.1933 922.345 61.54 921.798 61.74C921.265 61.94 920.672 62.04 920.018 62.04ZM921.858 58.42L917.058 47.24H920.278L923.998 56.24L921.858 58.42ZM935.671 58.16C934.511 58.16 933.477 57.9267 932.571 57.46C931.664 56.98 930.951 56.32 930.431 55.48C929.924 54.64 929.671 53.6867 929.671 52.62C929.671 51.54 929.924 50.5867 930.431 49.76C930.951 48.92 931.664 48.2667 932.571 47.8C933.477 47.32 934.511 47.08 935.671 47.08C936.804 47.08 937.791 47.32 938.631 47.8C939.471 48.2667 940.091 48.94 940.491 49.82L938.071 51.12C937.791 50.6133 937.437 50.24 937.011 50C936.597 49.76 936.144 49.64 935.651 49.64C935.117 49.64 934.637 49.76 934.211 50C933.784 50.24 933.444 50.58 933.191 51.02C932.951 51.46 932.831 51.9933 932.831 52.62C932.831 53.2467 932.951 53.78 933.191 54.22C933.444 54.66 933.784 55 934.211 55.24C934.637 55.48 935.117 55.6 935.651 55.6C936.144 55.6 936.597 55.4867 937.011 55.26C937.437 55.02 937.791 54.64 938.071 54.12L940.491 55.44C940.091 56.3067 939.471 56.98 938.631 57.46C937.791 57.9267 936.804 58.16 935.671 58.16ZM940.851 57.98L941.011 55.42C941.091 55.4333 941.171 55.4467 941.251 55.46C941.331 55.46 941.404 55.46 941.471 55.46C941.844 55.46 942.137 55.3533 942.351 55.14C942.564 54.9267 942.724 54.64 942.831 54.28C942.937 53.9067 943.011 53.4867 943.051 53.02C943.104 52.5533 943.144 52.0667 943.171 51.56L943.331 47.24H952.531V58H949.411V49.04L950.111 49.8H945.391L946.051 49L945.911 51.7C945.871 52.66 945.791 53.54 945.671 54.34C945.564 55.14 945.384 55.8333 945.131 56.42C944.877 56.9933 944.537 57.44 944.111 57.76C943.684 58.0667 943.137 58.22 942.471 58.22C942.231 58.22 941.977 58.2 941.711 58.16C941.444 58.12 941.157 58.06 940.851 57.98ZM956.991 62.04C956.431 62.04 955.878 61.9533 955.331 61.78C954.784 61.6067 954.338 61.3667 953.991 61.06L955.131 58.84C955.371 59.0533 955.644 59.22 955.951 59.34C956.271 59.46 956.584 59.52 956.891 59.52C957.331 59.52 957.678 59.4133 957.931 59.2C958.198 59 958.438 58.66 958.651 58.18L959.211 56.86L959.451 56.52L963.311 47.24H966.311L961.451 58.66C961.104 59.5267 960.704 60.2067 960.251 60.7C959.811 61.1933 959.318 61.54 958.771 61.74C958.238 61.94 957.644 62.04 956.991 62.04ZM958.831 58.42L954.031 47.24H957.251L960.971 56.24L958.831 58.42ZM967.816 58V47.24H976.436V49.8H970.216L970.916 49.12V58H967.816ZM979.608 62.04C979.048 62.04 978.495 61.9533 977.948 61.78C977.402 61.6067 976.955 61.3667 976.608 61.06L977.748 58.84C977.988 59.0533 978.262 59.22 978.568 59.34C978.888 59.46 979.202 59.52 979.508 59.52C979.948 59.52 980.295 59.4133 980.548 59.2C980.815 59 981.055 58.66 981.268 58.18L981.828 56.86L982.068 56.52L985.928 47.24H988.928L984.068 58.66C983.722 59.5267 983.322 60.2067 982.868 60.7C982.428 61.1933 981.935 61.54 981.388 61.74C980.855 61.94 980.262 62.04 979.608 62.04ZM981.448 58.42L976.648 47.24H979.868L983.588 56.24L981.448 58.42Z" fill="url(#paint0_linear_338_511)"/>
<path d="M780.252 44.7313H763.219V27.6983C763.219 26.7493 762.47 26 761.52 26H752.43C751.481 26 750.731 26.7493 750.731 27.6983V44.7313H733.698C732.749 44.7313 732 45.4805 732 46.4296V55.5704C732 56.5195 732.749 57.2687 733.698 57.2687H750.731V74.3017C750.731 75.2507 751.481 76 752.43 76H761.57C762.519 76 763.269 75.2507 763.269 74.3017V57.2188H780.302C781.251 57.2188 782 56.4695 782 55.5205V46.4296C781.95 45.4805 781.201 44.7313 780.252 44.7313Z" fill="url(#paint1_linear_338_511)"/>
<rect y="1" width="1720" height="100" rx="10" stroke="url(#paint2_linear_338_511)" stroke-linecap="round" stroke-linejoin="round" stroke-dasharray="10 10"/>
<defs>
<linearGradient id="paint0_linear_338_511" x1="807" y1="59" x2="977.479" y2="5.96534" gradientUnits="userSpaceOnUse">
<stop stop-color="#53CDEF"/>
<stop offset="1" stop-color="#467CD7"/>
</linearGradient>
<linearGradient id="paint1_linear_338_511" x1="732" y1="76" x2="783.329" y2="74.5962" gradientUnits="userSpaceOnUse">
<stop stop-color="#53CDEF"/>
<stop offset="0.911458" stop-color="#467CD7"/>
</linearGradient>
<linearGradient id="paint2_linear_338_511" x1="6.4075e-06" y1="101" x2="1446.88" y2="-579.611" gradientUnits="userSpaceOnUse">
<stop stop-color="#53CDEF"/>
<stop offset="1" stop-color="#467CD7"/>
</linearGradient>
</defs>
</svg>
