<svg width="20" height="20" viewBox="0 0 20 20" fill="none" xmlns="http://www.w3.org/2000/svg">
<circle cx="10" cy="10" r="9.5" transform="rotate(-180 10 10)" stroke="currentColor"/>
<path fill-rule="evenodd" clip-rule="evenodd" d="M9.67776 12.9099L4.31065 8.81121C4.01359 8.6397 3.9118 8.25985 4.08332 7.96278C4.25483 7.66572 4.63468 7.56394 4.93175 7.73545L10 11.6616L15.0683 7.73545C15.3653 7.56394 15.7452 7.66572 15.9167 7.96278C16.0882 8.25985 15.9864 8.6397 15.6893 8.81121L10.3222 12.9099C10.2972 12.9251 10.2713 12.9384 10.2445 12.9498C10.1654 12.9838 10.0823 13.0001 9.99998 13C9.9177 13.0001 9.83455 12.9838 9.75547 12.9498C9.72874 12.9384 9.70277 12.9251 9.67776 12.9099Z" fill="currentColor"/>
</svg>
