<svg width="34" height="37" viewBox="0 0 34 37" fill="none" xmlns="http://www.w3.org/2000/svg">
<path d="M16.9982 3.77759C18.0413 3.77759 18.887 2.93195 18.887 1.8888C18.887 0.845643 18.0413 0 16.9982 0C15.955 0 15.1094 0.845643 15.1094 1.8888C15.1094 2.93195 15.955 3.77759 16.9982 3.77759Z" fill="#D2D2D2" fill-opacity="0.9"/>
<path d="M17.6328 31.6536H16.3543C16.1071 31.6536 15.9062 31.4528 15.9062 31.2056V2.33673C15.9062 2.08953 16.1071 1.88867 16.3543 1.88867H17.6328C17.88 1.88867 18.0809 2.08953 18.0809 2.33673V31.2017C18.0847 31.4489 17.88 31.6536 17.6328 31.6536Z" fill="#D2D2D2" fill-opacity="0.9"/>
<path d="M28.5833 24.9251C31.5729 24.9251 33.9986 22.4994 33.9986 19.5098H23.168C23.168 22.4994 25.5898 24.9251 28.5833 24.9251Z" fill="#D2D2D2" fill-opacity="0.9"/>
<path d="M5.41533 24.9251C8.40495 24.9251 10.8306 22.4994 10.8306 19.5098H0C0 22.4994 2.42183 24.9251 5.41533 24.9251Z" fill="#D2D2D2" fill-opacity="0.9"/>
<path d="M3.89453 9.80714V8.52862C3.89453 8.28142 4.09539 8.08057 4.34259 8.08057H29.6579C29.9051 8.08057 30.1059 8.28142 30.1059 8.52862V9.80714C30.1059 10.0543 29.9051 10.2552 29.6579 10.2552H4.34259C4.09539 10.2552 3.89453 10.0543 3.89453 9.80714Z" fill="#D2D2D2" fill-opacity="0.9"/>
<path d="M28.6627 10.0041L29.0683 9.76845C29.1455 9.7221 29.2498 9.74914 29.2923 9.83026L33.9467 17.8914C33.9931 17.9687 33.966 18.073 33.8849 18.1155L33.4793 18.3511C33.4021 18.3974 33.2978 18.3704 33.2553 18.2893L28.6048 10.2281C28.5584 10.1508 28.5855 10.0504 28.6627 10.0041Z" fill="#D2D2D2" fill-opacity="0.9"/>
<path d="M23.5499 18.3471L23.1444 18.1115C23.0671 18.0651 23.0401 17.9647 23.0826 17.8874L27.737 9.82625C27.7833 9.749 27.8837 9.72196 27.961 9.76445L28.3666 10.0001C28.4438 10.0464 28.4708 10.1468 28.4284 10.2241L23.774 18.2891C23.7315 18.3664 23.6272 18.3934 23.5499 18.3471Z" fill="#D2D2D2" fill-opacity="0.9"/>
<path d="M5.6014 10.0041L6.00697 9.76845C6.08422 9.7221 6.18851 9.74914 6.23099 9.83026L10.8854 17.8914C10.9317 17.9687 10.9047 18.073 10.8236 18.1155L10.418 18.3511C10.3408 18.3974 10.2365 18.3704 10.194 18.2893L5.53959 10.2281C5.49711 10.1508 5.52414 10.0504 5.6014 10.0041Z" fill="#D2D2D2" fill-opacity="0.9"/>
<path d="M0.487434 18.3471L0.0818642 18.1115C0.0046128 18.0651 -0.0224251 17.9647 0.0200631 17.8874L4.67446 9.82625C4.72081 9.749 4.82124 9.72196 4.89849 9.76445L5.30406 10.0001C5.38131 10.0464 5.40835 10.1468 5.36586 10.2241L0.711463 18.2891C0.665112 18.3664 0.564686 18.3934 0.487434 18.3471Z" fill="#D2D2D2" fill-opacity="0.9"/>
<path d="M29.8129 36.1266H4.18088C3.4045 36.1266 2.85988 35.7829 3.10709 35.4507L4.86456 33.1216C5.01906 32.913 5.45167 32.7739 5.93835 32.7739H28.0593C28.546 32.7739 28.9747 32.913 29.1331 33.1216L30.8906 35.4507C31.1378 35.7829 30.5893 36.1266 29.8129 36.1266Z" fill="#D2D2D2" fill-opacity="0.9"/>
</svg>
