<svg width="36" height="36" viewBox="0 0 36 36" fill="none" xmlns="http://www.w3.org/2000/svg">
<path d="M17.9975 3.15283C22.6755 3.15283 23.2294 3.17335 25.0692 3.25542C26.7789 3.33065 27.7022 3.61789 28.3177 3.85726C29.1316 4.17186 29.7198 4.55485 30.3284 5.16353C30.944 5.77905 31.3201 6.36038 31.6347 7.17423C31.8741 7.78975 32.1613 8.71987 32.2366 10.4228C32.3186 12.2694 32.3391 12.8233 32.3391 17.4945C32.3391 22.1724 32.3186 22.7264 32.2366 24.5661C32.1613 26.2759 31.8741 27.1992 31.6347 27.8147C31.3201 28.6285 30.9371 29.2167 30.3284 29.8254C29.7129 30.4409 29.1316 30.8171 28.3177 31.1317C27.7022 31.371 26.7721 31.6583 25.0692 31.7335C23.2226 31.8156 22.6686 31.8361 17.9975 31.8361C13.3196 31.8361 12.7656 31.8156 10.9259 31.7335C9.21609 31.6583 8.29281 31.371 7.67729 31.1317C6.86343 30.8171 6.27527 30.4341 5.66659 29.8254C5.05107 29.2099 4.67492 28.6285 4.36032 27.8147C4.12095 27.1992 3.83371 26.269 3.75848 24.5661C3.67641 22.7195 3.65589 22.1656 3.65589 17.4945C3.65589 12.8165 3.67641 12.2625 3.75848 10.4228C3.83371 8.71303 4.12095 7.78975 4.36032 7.17423C4.67492 6.36038 5.05791 5.77221 5.66659 5.16353C6.28211 4.54801 6.86343 4.17186 7.67729 3.85726C8.29281 3.61789 9.22293 3.33065 10.9259 3.25542C12.7656 3.17335 13.3196 3.15283 17.9975 3.15283ZM17.9975 0C13.2443 0 12.6493 0.0205173 10.7822 0.102587C8.92201 0.184656 7.64309 0.485577 6.53516 0.916441C5.37935 1.36782 4.40135 1.96283 3.4302 2.94082C2.45221 3.91197 1.8572 4.88997 1.40582 6.03894C0.974957 7.15371 0.674036 8.42579 0.591967 10.286C0.509897 12.1599 0.48938 12.7549 0.48938 17.5081C0.48938 22.2613 0.509897 22.8563 0.591967 24.7234C0.674036 26.5836 0.974957 27.8626 1.40582 28.9705C1.8572 30.1263 2.45221 31.1043 3.4302 32.0754C4.40135 33.0466 5.37935 33.6484 6.52832 34.093C7.64309 34.5238 8.91517 34.8248 10.7754 34.9068C12.6425 34.9889 13.2375 35.0094 17.9907 35.0094C22.7439 35.0094 23.3389 34.9889 25.2059 34.9068C27.0662 34.8248 28.3451 34.5238 29.453 34.093C30.602 33.6484 31.58 33.0466 32.5511 32.0754C33.5223 31.1043 34.1241 30.1263 34.5687 28.9773C34.9996 27.8626 35.3005 26.5905 35.3825 24.7302C35.4646 22.8632 35.4851 22.2682 35.4851 17.515C35.4851 12.7618 35.4646 12.1668 35.3825 10.2997C35.3005 8.43947 34.9996 7.16055 34.5687 6.05262C34.1378 4.88997 33.5428 3.91197 32.5648 2.94082C31.5937 1.96966 30.6157 1.36782 29.4667 0.92328C28.3519 0.492416 27.0799 0.191495 25.2196 0.109426C23.3457 0.0205174 22.7507 0 17.9975 0Z" fill="#434343"/>
<path d="M17.9975 8.51465C13.0323 8.51465 9.00403 12.5429 9.00403 17.5081C9.00403 22.4733 13.0323 26.5015 17.9975 26.5015C22.9627 26.5015 26.9909 22.4733 26.9909 17.5081C26.9909 12.5429 22.9627 8.51465 17.9975 8.51465ZM17.9975 23.3418C14.7762 23.3418 12.1637 20.7293 12.1637 17.5081C12.1637 14.2869 14.7762 11.6743 17.9975 11.6743C21.2187 11.6743 23.8312 14.2869 23.8312 17.5081C23.8312 20.7293 21.2187 23.3418 17.9975 23.3418Z" fill="#434343"/>
<path d="M29.4462 8.15918C29.4462 9.32183 28.5024 10.2588 27.3466 10.2588C26.1839 10.2588 25.2469 9.31499 25.2469 8.15918C25.2469 6.99653 26.1907 6.05957 27.3466 6.05957C28.5024 6.05957 29.4462 7.00337 29.4462 8.15918Z" fill="#434343"/>
</svg>
