<?xml version="1.0" encoding="utf-8"?>
<!-- Generator: Adobe Illustrator 26.2.1, SVG Export Plug-In . SVG Version: 6.00 Build 0)  -->
<svg version="1.1" id="Layer_1" xmlns="http://www.w3.org/2000/svg" xmlns:xlink="http://www.w3.org/1999/xlink" x="0px" y="0px"
	 viewBox="0 0 50 50" style="enable-background:new 0 0 50 50;" xml:space="preserve">
<style type="text/css">
	.st0{fill:#434343;}
</style>
<path class="st0" d="M24.4,3c-1.4,0-2.7,0.1-4.1,0.3c-2.6,0.3-5.2,0.9-7.8,2c-4,1.8-6.8,4.9-7.6,9.5c-0.3,1.9-0.6,3.8-0.8,5.8
	c-0.3,3.8-0.1,7.6,1,11.3c0.8,2.9,2.4,5.6,5.1,7.3c1.2,0.7,2.7,1.1,3.5,1.4c0.2,0.1,0.3,0.2,0.3,0.2c0,0,0,0,0,0.3c0,2.4,0,7,0,7
	l0,1h1.8l0.3-0.3c0,0,4.5-4.4,6.2-6.2c0.3-0.3,0.4-0.5,0.5-0.5c0,0,0,0,0.3,0c2.2,0,4.3-0.1,6.4-0.2c2.8-0.2,5.7-0.4,8.5-1.6
	c2.4-1,4.4-2.7,5.7-5.1c1.2-2.5,1.9-5.2,2.2-8c0.4-4.6,0.3-9.3-1-13.9c-0.8-2.7-2.3-5-4.6-6.6c-2.8-1.9-5.9-2.6-9-3.1
	c-1.8-0.3-3.6-0.4-5.4-0.5C25.3,3,24.9,3,24.4,3z M25.7,5c1.7,0,3.4,0.2,5.2,0.5c3,0.4,5.8,1.1,8.1,2.8c1.9,1.3,3.2,3.1,3.8,5.4
	c1.2,4.3,1.3,8.7,0.9,13.1c-0.2,2.6-0.8,5-2,7.3c-1,2-2.6,3.3-4.6,4.2c-2.4,1-5.1,1.3-7.8,1.4C27.2,39.9,25.1,40,23,40
	c-0.5,0-1.1,0.2-1.4,0.4S21,41,20.8,41.2c-1.2,1.3-3.5,3.5-4.8,4.8c0-1.5,0-3.3,0-5c0-0.5-0.1-1-0.4-1.4c-0.3-0.4-0.7-0.7-1.1-0.8
	c-1.1-0.5-2.6-0.9-3.2-1.3C9,36,7.8,33.9,7,31.3c-1-3.4-1.2-7-0.9-10.6c0.2-1.9,0.4-3.7,0.8-5.6c0.7-3.9,2.9-6.4,6.5-8
	c2.2-1,4.6-1.5,7.2-1.8C22.3,5,24,5,25.7,5z M26.2,10c-0.8,0-1.6,0.1-2.4,0.3c-0.5,0.1-0.9,0.7-0.8,1.2s0.7,0.9,1.2,0.8
	c0.6-0.1,1.3-0.2,2-0.2c4.9,0,8.8,3.9,8.8,8.8c0,0.7-0.1,1.3-0.2,2c-0.1,0.5,0.2,1.1,0.8,1.2s1.1-0.2,1.2-0.8
	c0.2-0.8,0.3-1.6,0.3-2.4C37,14.9,32.1,10,26.2,10z M16.2,12c-0.2,0-0.3,0-0.5,0c-1.8,0.4-3.6,1.7-3.7,4.1c0.1,0.3,0,0.7,0.2,1
	c0.6,1.5,1.1,3,1.9,4.3c3.6,6.7,9.1,11.3,16,14.3c0.8,0.4,1.7,0.4,2.5,0.1c1.2-0.5,2.1-1.2,2.8-2.3c0.9-1.5,0.9-2.5-0.6-3.6
	c-1-0.7-1.9-1.4-2.9-2.1c-1.5-1.1-3.1-1.2-4.2,0.6c-0.1,0.1-0.1,0.2-0.2,0.2c-0.6,0.6-1.3,0.8-2,0.4c-2.8-1.2-5-3-6.3-5.8
	c-0.8-1.6-0.6-2.5,0.9-3.5c0.1-0.1,0.3-0.2,0.4-0.3c0.6-0.6,0.8-1.3,0.4-2c-0.8-1.8-2-3.4-3.4-4.7C17.1,12.3,16.7,12,16.2,12z
	 M26.1,13c-0.4,0-0.9,0-1.3,0.1c-0.4,0-0.7,0.3-0.8,0.6c-0.1,0.3-0.1,0.7,0.2,1c0.2,0.3,0.6,0.4,1,0.3c0.3-0.1,0.6-0.1,1-0.1
	c3.2,0,5.9,2.6,5.9,5.9c0,0.3,0,0.7-0.1,1c-0.1,0.4,0.1,0.7,0.3,1c0.3,0.2,0.7,0.3,1,0.2c0.3-0.1,0.6-0.4,0.6-0.8
	c0.1-0.4,0.1-0.9,0.1-1.3C34,16.5,30.5,13,26.1,13z M26,16c-0.4,0-0.7,0.2-0.9,0.5c-0.2,0.3-0.2,0.7,0,1c0.2,0.3,0.5,0.5,0.9,0.5
	c1.7,0,3,1.3,3,3c0,0.4,0.2,0.7,0.5,0.9c0.3,0.2,0.7,0.2,1,0c0.3-0.2,0.5-0.5,0.5-0.9C31,18.2,28.8,16,26,16z"/>
</svg>
