<svg width="50" height="35" viewBox="0 0 50 35" fill="none" xmlns="http://www.w3.org/2000/svg">
<path d="M48.6328 5.46385C48.352 4.40712 47.7985 3.44268 47.0279 2.66705C46.2572 1.89143 45.2963 1.33182 44.2414 1.04423C40.358 1.2336e-07 24.8357 0 24.8357 0C24.8357 0 9.31339 1.2336e-07 5.42999 1.04423C4.37508 1.33182 3.4142 1.89143 2.64353 2.66705C1.87285 3.44268 1.31941 4.40712 1.03858 5.46385C1.2336e-07 9.36419 0 17.4979 0 17.4979C0 17.4979 1.2336e-07 25.6316 1.03858 29.5319C1.31941 30.5886 1.87285 31.5531 2.64353 32.3287C3.4142 33.1043 4.37508 33.6639 5.42999 33.9515C9.31339 34.9958 24.8357 34.9958 24.8357 34.9958C24.8357 34.9958 40.358 34.9958 44.2414 33.9515C45.2963 33.6639 46.2572 33.1043 47.0279 32.3287C47.7985 31.5531 48.352 30.5886 48.6328 29.5319C49.6714 25.6316 49.6714 17.4979 49.6714 17.4979C49.6714 17.4979 49.6714 9.36419 48.6328 5.46385Z" fill="#434343"/>
<path d="M19.7556 24.8839V10.1123L32.7379 17.4981L19.7556 24.8839Z" fill="#FEFEFE"/>
</svg>
