<svg width="31" height="32" viewBox="0 0 31 32" fill="none" xmlns="http://www.w3.org/2000/svg">
<path d="M15.0563 3.34609C15.9803 3.34609 16.7294 2.59704 16.7294 1.67304C16.7294 0.749047 15.9803 0 15.0563 0C14.1323 0 13.3833 0.749047 13.3833 1.67304C13.3833 2.59704 14.1323 3.34609 15.0563 3.34609Z" fill="#D2D2D2"/>
<path d="M15.6187 28.038H14.4862C14.2673 28.038 14.0894 27.8601 14.0894 27.6411V2.06992C14.0894 1.85095 14.2673 1.67304 14.4862 1.67304H15.6187C15.8377 1.67304 16.0156 1.85095 16.0156 2.06992V27.6377C16.019 27.8567 15.8377 28.038 15.6187 28.038Z" fill="#D2D2D2"/>
<path d="M25.3182 22.0779C27.9664 22.0779 30.115 19.9293 30.115 17.2812H20.5215C20.5215 19.9293 22.6667 22.0779 25.3182 22.0779Z" fill="#D2D2D2"/>
<path d="M4.79674 22.078C7.44487 22.078 9.59348 19.9293 9.59348 17.2812H0C0 19.9293 2.14519 22.078 4.79674 22.078Z" fill="#D2D2D2"/>
<path d="M3.44971 8.68677V7.5543C3.44971 7.33534 3.62762 7.15742 3.84658 7.15742H26.2701C26.4891 7.15742 26.667 7.33534 26.667 7.5543V8.68677C26.667 8.90574 26.4891 9.08365 26.2701 9.08365H3.84658C3.62762 9.08365 3.44971 8.90574 3.44971 8.68677Z" fill="#D2D2D2"/>
<path d="M25.3889 8.86132L25.7481 8.65262C25.8165 8.61157 25.9089 8.63552 25.9465 8.70736L30.0693 15.8477C30.1103 15.9162 30.0864 16.0085 30.0145 16.0462L29.6553 16.2549C29.5869 16.2959 29.4945 16.272 29.4568 16.2001L25.3375 9.05976C25.2965 8.99134 25.3204 8.90238 25.3889 8.86132Z" fill="#D2D2D2"/>
<path d="M20.86 16.2514L20.5007 16.0427C20.4323 16.0016 20.4084 15.9127 20.446 15.8442L24.5687 8.70387C24.6098 8.63544 24.6987 8.61149 24.7672 8.64913L25.1264 8.85783C25.1948 8.89889 25.2188 8.98784 25.1811 9.05627L21.0584 16.2001C21.0208 16.2685 20.9284 16.2924 20.86 16.2514Z" fill="#D2D2D2"/>
<path d="M4.96167 8.86132L5.32092 8.65262C5.38934 8.61157 5.48172 8.63552 5.51935 8.70736L9.64209 15.8477C9.68314 15.9162 9.65919 16.0085 9.58735 16.0462L9.2281 16.2549C9.15968 16.2959 9.0673 16.272 9.02966 16.2001L4.90693 9.05976C4.8693 8.99134 4.89325 8.90238 4.96167 8.86132Z" fill="#D2D2D2"/>
<path d="M0.431755 16.2514L0.072513 16.0427C0.00408589 16.0016 -0.0198635 15.9127 0.0177714 15.8442L4.1405 8.70388C4.18156 8.63545 4.27052 8.6115 4.33894 8.64913L4.69818 8.85784C4.76661 8.89889 4.79056 8.98785 4.75293 9.05628L0.630194 16.2001C0.589138 16.2685 0.500182 16.2924 0.431755 16.2514Z" fill="#D2D2D2"/>
<path d="M26.4073 32H3.7032C3.01551 32 2.5331 31.6955 2.75206 31.4013L4.30878 29.3382C4.44563 29.1534 4.82883 29.0303 5.25992 29.0303H24.854C25.2851 29.0303 25.6649 29.1534 25.8052 29.3382L27.3619 31.4013C27.5808 31.6955 27.095 32 26.4073 32Z" fill="#D2D2D2"/>
</svg>
