<svg width="100" height="140" viewBox="0 0 100 140" fill="none" xmlns="http://www.w3.org/2000/svg">
<path d="M62.1126 67.3656H53.6008V58.8492C53.6008 58.3746 53.2264 58 52.7521 58H48.2091C47.7349 58 47.3605 58.3746 47.3605 58.8492V67.3656H38.8487C38.3744 67.3656 38 67.7403 38 68.2148V72.7852C38 73.2597 38.3744 73.6344 38.8487 73.6344H47.3605V82.1508C47.3605 82.6254 47.7349 83 48.2091 83H52.7771C53.2513 83 53.6257 82.6254 53.6257 82.1508V73.6094H62.1375C62.6118 73.6094 62.9862 73.2348 62.9862 72.7602V68.2148C62.9612 67.7403 62.5868 67.3656 62.1126 67.3656Z" fill="url(#paint0_linear_811_2886)"/>
<rect x="0.5" y="0.5" width="99" height="139" rx="9.5" stroke="#2C75FF" stroke-dasharray="10 10"/>
<defs>
<linearGradient id="paint0_linear_811_2886" x1="38" y1="83" x2="63.6504" y2="82.2989" gradientUnits="userSpaceOnUse">
<stop stop-color="#53CDEF"/>
<stop offset="0.911458" stop-color="#467CD7"/>
</linearGradient>
</defs>
</svg>
